<?xml version="1.0" standalone="no"?><!DOCTYPE svg PUBLIC "-//W3C//DTD SVG 1.1//EN" 	"http://www.w3.org/Graphics/SVG/1.1/DTD/svg11.dtd"><svg width="1280" height="631" version="1.1"	xmlns="http://www.w3.org/2000/svg"><title>Krona (snapshot) - Pseudomonadati</title><defs>	<style type="text/css">	text {font-size: 11px; font-family: sans-serif; dominant-baseline:central}	path {stroke-width:0.27499999999999997;}	path.wedge {stroke:none}	path.line {fill:none;stroke:black;}	line {stroke:black;stroke-width:0.27499999999999997;}	line.tick {stroke-width:0.5499999999999999;}	line.pattern {stroke-width:0.18333333333333332;}	circle {fill:none;stroke:black;stroke-width:0.27499999999999997;}	rect {stroke:black;stroke-width:0.27499999999999997;}	.highlight {stroke:black;stroke-width:1.375;}	.searchHighlight {fill:rgb(255, 255, 100);stroke:none;}	</style><pattern id="hiddenPattern" patternUnits="userSpaceOnUse" x="0" y="0" width="6.6" height="6.6"><line class="pattern" x1="0" y1="0" x2="3.3" y2="3.3"/><line class="pattern" x1="3.3" y1="6.6" x2="6.6" y2="3.3"/></pattern></defs><path class="wedge" fill="rgb(209,117,117)" d=" M 565,378.6 L 565,567.9 A 252.4,252.4 0 1,1 565.0999999973839,567.8999801901746 L 565.0249999993459,378.59999504754364 A 63.1,63.1 0 1 0 565,378.6 Z "/><path class="wedge" fill="rgb(214,132,132)" d=" M 565,427.71000855007117 L 565,567.9 A 252.4,252.4 0 0,1 565,63.099999999999994 L 565,203.2899914499288 A 112.2100085500712,112.2100085500712 0 0 0 565,427.71000855007117 Z "/><path class="wedge" fill="rgb(214,132,132)" d=" M 565,427.71000855007117 L 565,567.9 A 252.4,252.4 0 0,1 565,63.099999999999994 L 565,203.2899914499288 A 112.2100085500712,112.2100085500712 0 0 0 565,427.71000855007117 Z "/><path class="wedge" fill="rgb(214,132,132)" d=" M 565,427.71000855007117 L 565,567.9 A 252.4,252.4 0 0,1 565,63.099999999999994 L 565,203.2899914499288 A 112.2100085500712,112.2100085500712 0 0 0 565,427.71000855007117 Z "/><path class="wedge" fill="rgb(214,132,132)" d=" M 565,427.71000855007117 L 565,567.9 A 252.4,252.4 0 0,1 565,63.099999999999994 L 565,203.2899914499288 A 112.2100085500712,112.2100085500712 0 0 0 565,427.71000855007117 Z "/><path class="wedge" fill="rgb(219,147,147)" d=" M 565,467.971898265801 L 565,567.9 A 252.4,252.4 0 0,1 565,63.099999999999994 L 565,163.02810173419905 A 152.47189826580095,152.47189826580095 0 0 0 565,467.971898265801 Z "/><path class="wedge" fill="rgb(224,163,163)" d=" M 565,501.5742023813921 L 565,567.9 A 252.4,252.4 0 0,1 565,63.099999999999994 L 565,129.42579761860787 A 186.07420238139213,186.07420238139213 0 0 0 565,501.5742023813921 Z "/><path class="wedge" fill="rgb(219,165,147)" d=" M 565,163.02810173419905 L 565,63.099999999999994 A 252.4,252.4 0 0,1 565,63.099999999999994 L 565,163.02810173419905 A 152.47189826580095,152.47189826580095 0 0 0 565,163.02810173419905 Z "/><path class="wedge" fill="url(#hiddenPattern)" d=" M 565,163.02810173419905 L 565,63.099999999999994 A 252.4,252.4 0 0,1 565,63.099999999999994 L 565,163.02810173419905 A 152.47189826580095,152.47189826580095 0 0 0 565,163.02810173419905 Z "/><path class="wedge" fill="rgb(214,153,132)" d=" M 565,203.2899914499288 L 565,63.099999999999994 A 252.4,252.4 0 0,1 565.0000000000001,567.9 L 565,427.71000855007117 A 112.2100085500712,112.2100085500712 0 0 0 565,203.2899914499288 Z "/><path class="wedge" fill="rgb(219,165,147)" d=" M 565,163.02810173419905 L 565,63.099999999999994 A 252.4,252.4 0 0,1 565.0000000000001,567.9 L 565,467.971898265801 A 152.47189826580095,152.47189826580095 0 0 0 565,163.02810173419905 Z "/><path class="wedge" fill="rgb(219,165,147)" d=" M 565,163.02810173419905 L 565,63.099999999999994 A 252.4,252.4 0 0,1 565.0000000000001,567.9 L 565,467.971898265801 A 152.47189826580095,152.47189826580095 0 0 0 565,163.02810173419905 Z "/><path class="wedge" fill="rgb(224,178,163)" d=" M 565,129.42579761860787 L 565,63.099999999999994 A 252.4,252.4 0 0,1 565.0000000000001,567.9 L 565.0000000000001,501.5742023813921 A 186.07420238139213,186.07420238139213 0 0 0 565,129.42579761860787 Z "/><path class="wedge" fill="rgb(219,183,147)" d=" M 565,467.971898265801 L 565.0000000000001,567.9 A 252.4,252.4 0 0,1 565.0000000000001,567.9 L 565,467.971898265801 A 152.47189826580095,152.47189826580095 0 0 0 565,467.971898265801 Z "/><path class="wedge" fill="url(#hiddenPattern)" d=" M 565,467.971898265801 L 565.0000000000001,567.9 A 252.4,252.4 0 0,1 565.0000000000001,567.9 L 565,467.971898265801 A 152.47189826580095,152.47189826580095 0 0 0 565,467.971898265801 Z "/><path class="wedge" fill="rgb(117,209,117)" d=" M 565,378.6 L 565.0000000000001,567.9 A 252.4,252.4 0 0,1 565.0000000000001,567.9 L 565,378.6 A 63.1,63.1 0 0 0 565,378.6 Z "/><path class="wedge" fill="rgb(117,209,117)" d=" M 565,378.6 L 565.0000000000001,567.9 A 252.4,252.4 0 0,1 565.0000000000001,567.9 L 565,378.6 A 63.1,63.1 0 0 0 565,378.6 Z "/><path class="wedge" fill="rgb(117,209,117)" d=" M 565,378.6 L 565.0000000000001,567.9 A 252.4,252.4 0 0,1 565.0000000000001,567.9 L 565,378.6 A 63.1,63.1 0 0 0 565,378.6 Z "/><path class="wedge" fill="rgb(117,209,117)" d=" M 565,378.6 L 565.0000000000001,567.9 A 252.4,252.4 0 0,1 565.0000000000001,567.9 L 565,378.6 A 63.1,63.1 0 0 0 565,378.6 Z "/><path class="wedge" fill="rgb(117,209,117)" d=" M 565,378.6 L 565.0000000000001,567.9 A 252.4,252.4 0 0,1 565.0000000000001,567.9 L 565,378.6 A 63.1,63.1 0 0 0 565,378.6 Z "/><path class="wedge" fill="rgb(117,209,117)" d=" M 565,378.6 L 565.0000000000001,567.9 A 252.4,252.4 0 0,1 565.0000000000001,567.9 L 565,378.6 A 63.1,63.1 0 0 0 565,378.6 Z "/><path class="wedge" fill="rgb(117,209,117)" d=" M 565,378.6 L 565.0000000000001,567.9 A 252.4,252.4 0 0,1 565.0000000000001,567.9 L 565,378.6 A 63.1,63.1 0 0 0 565,378.6 Z "/><rect fill="rgb(117,209,117)" x="1248.535" y="570.2016666666667" width="22" height="22"/><path class="line" d="M 565,567.9 L 565,609.9666666666667 A 294.4666666666667,294.4666666666667 0 0,0 594.022121972579,608.5329916818011 L 869.9833333333333,581.2016666666667 L 1145.8056705729168,581.2016666666667"/><text x="1241.2016666666668" y="581.2016666666667" style="font-color:gray;font-weight:normal" text-anchor="end">Chitinophaga&#160;&#160;&#160;0%</text><path class="wedge" fill="rgb(132,214,132)" d=" M 565,427.71000855007117 L 565.0000000000001,567.9 A 252.4,252.4 0 0,1 565.0000000000001,567.9 L 565,427.71000855007117 A 112.2100085500712,112.2100085500712 0 0 0 565,427.71000855007117 Z "/><path class="wedge" fill="url(#hiddenPattern)" d=" M 565,427.71000855007117 L 565.0000000000001,567.9 A 252.4,252.4 0 0,1 565.0000000000001,567.9 L 565,427.71000855007117 A 112.2100085500712,112.2100085500712 0 0 0 565,427.71000855007117 Z "/><path class="wedge" fill="rgb(117,117,209)" d=" M 565,378.6 L 565.0000000000001,567.9 A 252.4,252.4 0 0,1 565.0000000000001,567.9 L 565,378.6 A 63.1,63.1 0 0 0 565,378.6 Z "/><path class="wedge" fill="rgb(117,117,209)" d=" M 565,378.6 L 565.0000000000001,567.9 A 252.4,252.4 0 0,1 565.0000000000001,567.9 L 565,378.6 A 63.1,63.1 0 0 0 565,378.6 Z "/><path class="wedge" fill="rgb(117,117,209)" d=" M 565,378.6 L 565.0000000000001,567.9 A 252.4,252.4 0 0,1 565.0000000000001,567.9 L 565,378.6 A 63.1,63.1 0 0 0 565,378.6 Z "/><path class="wedge" fill="rgb(117,117,209)" d=" M 565,378.6 L 565.0000000000001,567.9 A 252.4,252.4 0 0,1 565.0000000000001,567.9 L 565,378.6 A 63.1,63.1 0 0 0 565,378.6 Z "/><path class="wedge" fill="rgb(117,117,209)" d=" M 565,378.6 L 565.0000000000001,567.9 A 252.4,252.4 0 0,1 565.0000000000001,567.9 L 565,378.6 A 63.1,63.1 0 0 0 565,378.6 Z "/><path class="wedge" fill="rgb(117,117,209)" d=" M 565,378.6 L 565.0000000000001,567.9 A 252.4,252.4 0 0,1 565.0000000000001,567.9 L 565,378.6 A 63.1,63.1 0 0 0 565,378.6 Z "/><rect fill="rgb(117,117,209)" x="1248.535" y="599.535" width="22" height="22"/><path class="line" d="M 565,567.9 L 565,620.4833333333333 A 304.98333333333335,304.98333333333335 0 0,0 575.5020912473354,620.302460112355 L 858.9833333333333,610.535 L 1150.1186588541668,610.535"/><text x="1241.2016666666668" y="610.535" style="font-color:gray;font-weight:normal" text-anchor="end">Myxococcus&#160;&#160;&#160;0%</text><path class="wedge" fill="rgb(132,132,214)" d=" M 565,427.71000855007117 L 565.0000000000001,567.9 A 252.4,252.4 0 0,1 565.0000000000001,567.9 L 565,427.71000855007117 A 112.2100085500712,112.2100085500712 0 0 0 565,427.71000855007117 Z "/><path class="wedge" fill="url(#hiddenPattern)" d=" M 565,427.71000855007117 L 565.0000000000001,567.9 A 252.4,252.4 0 0,1 565.0000000000001,567.9 L 565,427.71000855007117 A 112.2100085500712,112.2100085500712 0 0 0 565,427.71000855007117 Z "/><circle cx="565" cy="315.5" r="63.1"/><circle cx="565" cy="315.5" r="252.4"/><text x="565" y="315.5" text-anchor="middle" style="font-color:black;font-weight:bold" transform="rotate(360,565,315.5)">Pseudomonadati</text><path class="line" d=" M 565.0249999993459,378.59999504754364 A 63.1,63.1 0 1 0 565,378.6"/><line x1="565.0999999973839" y1="567.8999801901746" x2="565.0249999993459" y2="378.59999504754364"/><text x="565" y="237.66699743497864" text-anchor="middle" style="font-color:black;font-weight:normal" transform="rotate(360,565,315.5)">Pseudomonadota</text><line x1="565" y1="63.099999999999994" x2="565" y2="203.2899914499288"/><path class="line" d=" M 565,203.2899914499288 A 112.2100085500712,112.2100085500712 0 0 0 565,427.71000855007117"/><text x="565" y="191.2114245352099" text-anchor="middle" style="font-color:black;font-weight:normal" transform="rotate(270,565,315.5)">Acidiphilium</text><path class="line" d=" M 565,163.02810173419905 A 152.47189826580095,152.47189826580095 0 0 0 565,467.971898265801"/><text x="565" y="152.9474104995217" text-anchor="middle" style="font-color:black;font-weight:normal" transform="rotate(270,565,315.5)">unclassified Acidiphilium</text><path class="line" d=" M 565,129.42579761860787 A 186.07420238139213,186.07420238139213 0 0 0 565,501.5742023813921"/><text x="345.7628988093039" y="315.5" text-anchor="end" style="font-color:black;font-weight:normal" transform="rotate(0,565,315.5)">Acidiphilium sp.&#160;&#160;&#160;50%</text><path class="line" d=" M 565,163.02810173419905 A 152.47189826580095,152.47189826580095 0 0 0 565,163.02810173419905"/><path class="line" d=" M 565,427.71000855007117 A 112.2100085500712,112.2100085500712 0 0 0 565,203.2899914499288"/><text x="565" y="175.106668648918" text-anchor="middle" style="font-color:black;font-weight:normal" transform="rotate(450,565,315.5)">Gammaproteobacteria</text><path class="line" d=" M 565,467.971898265801 A 152.47189826580095,152.47189826580095 0 0 0 565,163.02810173419905"/><text x="565" y="139.50648885328522" text-anchor="middle" style="font-color:black;font-weight:normal" transform="rotate(450,565,315.5)">Halomonadaceae</text><path class="line" d=" M 565.0000000000001,501.5742023813921 A 186.07420238139213,186.07420238139213 0 0 0 565,129.42579761860787"/><text x="784.2371011906961" y="315.5" text-anchor="start" style="font-color:black;font-weight:normal" transform="rotate(360,565,315.5)">50%&#160;&#160;&#160;Halomonas</text><path class="line" d=" M 565,467.971898265801 A 152.47189826580095,152.47189826580095 0 0 0 565,467.971898265801"/><line x1="565.0000000000001" y1="567.9" x2="565" y2="378.6"/><path class="line" d=" M 565,378.6 A 63.1,63.1 0 0 0 565,378.6"/><path class="line" d=" M 565,427.71000855007117 A 112.2100085500712,112.2100085500712 0 0 0 565,427.71000855007117"/><line x1="565.0000000000001" y1="567.9" x2="565" y2="378.6"/><path class="line" d=" M 565,378.6 A 63.1,63.1 0 0 0 565,378.6"/><path class="line" d=" M 565,427.71000855007117 A 112.2100085500712,112.2100085500712 0 0 0 565,427.71000855007117"/></svg>