<?xml version="1.0" standalone="no"?><!DOCTYPE svg PUBLIC "-//W3C//DTD SVG 1.1//EN" 	"http://www.w3.org/Graphics/SVG/1.1/DTD/svg11.dtd"><svg width="1920" height="947" version="1.1"	xmlns="http://www.w3.org/2000/svg"><title>Krona (snapshot) - Root</title><defs>	<style type="text/css">	text {font-size: 12px; font-family: sans-serif; dominant-baseline:central}	path {stroke-width:0.3;}	path.wedge {stroke:none}	path.line {fill:none;stroke:black;}	line {stroke:black;stroke-width:0.3;}	line.tick {stroke-width:0.6;}	line.pattern {stroke-width:0.19999999999999998;}	circle {fill:none;stroke:black;stroke-width:0.3;}	rect {stroke:black;stroke-width:0.3;}	.highlight {stroke:black;stroke-width:1.5;}	.searchHighlight {fill:rgb(255, 255, 100);stroke:none;}	</style><pattern id="hiddenPattern" patternUnits="userSpaceOnUse" x="0" y="0" width="7.199999999999999" height="7.199999999999999"><line class="pattern" x1="0" y1="0" x2="3.5999999999999996" y2="3.5999999999999996"/><line class="pattern" x1="3.5999999999999996" y1="7.199999999999999" x2="7.199999999999999" y2="3.5999999999999996"/></pattern></defs><path class="wedge" fill="rgb(220,220,220)" d=" M 936.454833283926,411.598100540263 L 1090.8193331357038,225.89240216105202 A 321.98,321.98 0 0,1 885.0000000000001,795.48 L 885,553.995 A 80.495,80.495 0 0 0 936.454833283926,411.598100540263 Z "/><path class="wedge" fill="rgb(207,111,111)" d=" M 885,553.995 L 885,795.48 A 321.98,321.98 0 1,1 940.130307872381,156.2748913564746 L 898.7825769680952,394.19372283911866 A 80.495,80.495 0 1 0 885,553.995 Z "/><path class="wedge" fill="rgb(210,121,121)" d=" M 885,606.9253917037195 L 885,795.48 A 321.98,321.98 0 0,1 658.6652153153339,244.49413622846726 L 791.209058628708,378.6021893404392 A 133.4253917037195,133.4253917037195 0 0 0 885,606.9253917037195 Z "/><path class="wedge" fill="rgb(213,130,130)" d=" M 885,642.7961105298161 L 885,795.48 A 321.98,321.98 0 0,1 588.4611845189154,348.0573784032106 L 729.0807873716801,407.54264882601416 A 169.29611052981613,169.29611052981613 0 0 0 885,642.7961105298161 Z "/><path class="wedge" fill="rgb(216,140,140)" d=" M 885,668.6607014948248 L 885,795.48 A 321.98,321.98 0 0,1 588.4611845189154,348.0573784032106 L 705.2598818257877,397.4658673576642 A 195.16070149482482,195.16070149482482 0 0 0 885,668.6607014948248 Z "/><path class="wedge" fill="rgb(219,149,149)" d=" M 885,688.1741011300606 L 885,795.48 A 321.98,321.98 0 0,1 622.310328287831,659.6860810473029 L 709.8566086373047,597.6360630839132 A 214.67410113006068,214.67410113006068 0 0 0 885,688.1741011300606 Z "/><path class="wedge" fill="rgb(223,159,159)" d=" M 885,703.4112012803839 L 885,795.48 A 321.98,321.98 0 0,1 738.637182439408,760.2909448286763 L 780.4890017760812,678.2843053664739 A 229.91120128038386,229.91120128038386 0 0 0 885,703.4112012803839 Z "/><path class="wedge" fill="rgb(226,168,168)" d=" M 885,715.634642052093 L 885,795.48 A 321.98,321.98 0 0,1 757.6272678872199,769.214909184718 L 789.2134576764857,695.8828302531488 A 242.134642052093,242.134642052093 0 0 0 885,715.634642052093 Z "/><path class="wedge" fill="rgb(229,178,178)" d=" M 885,725.655793316922 L 885,795.48 A 321.98,321.98 0 0,1 827.3902616065225,790.284214319835 L 839.8834421784345,721.5867596499652 A 252.155793316922,252.155793316922 0 0 0 885,725.655793316922 Z "/><path class="wedge" fill="rgb(229,178,178)" d=" M 885,734.0193791984254 L 885,795.48 A 321.98,321.98 0 0,1 827.3902616065225,790.284214319835 L 838.3870014222857,729.8153824910378 A 260.5193791984254,260.5193791984254 0 0 0 885,734.0193791984254 Z "/><path class="wedge" fill="rgb(229,179,178)" d=" M 839.8834421784345,721.5867596499652 L 827.3902616065225,790.284214319835 A 321.98,321.98 0 0,1 799.572678157851,783.940482351896 L 818.0983473816786,716.6187219862422 A 252.155793316922,252.155793316922 0 0 0 839.8834421784345,721.5867596499652 Z "/><path class="wedge" fill="rgb(229,180,178)" d=" M 818.0983473816786,716.6187219862422 L 799.572678157851,783.940482351896 A 321.98,321.98 0 0,1 783.5089390193968,779.0661711332448 L 805.5181719481332,712.8014482046019 A 252.155793316922,252.155793316922 0 0 0 818.0983473816786,716.6187219862422 Z "/><path class="wedge" fill="rgb(226,172,168)" d=" M 805.5181719481332,712.8014482046019 L 783.5089390193968,779.0661711332448 A 321.98,321.98 0 0,1 757.6272678872199,769.214909184718 L 785.2491697843287,705.0865194146037 A 252.155793316922,252.155793316922 0 0 0 805.5181719481332,712.8014482046019 Z "/><path class="wedge" fill="url(#hiddenPattern)" d=" M 805.5181719481332,712.8014482046019 L 783.5089390193968,779.0661711332448 A 321.98,321.98 0 0,1 757.6272678872199,769.214909184718 L 785.2491697843287,705.0865194146037 A 252.155793316922,252.155793316922 0 0 0 805.5181719481332,712.8014482046019 Z "/><path class="wedge" fill="rgb(223,163,159)" d=" M 789.2134576764857,695.8828302531488 L 757.6272678872199,769.214909184718 A 321.98,321.98 0 0,1 738.637182439408,760.2909448286763 L 774.9325782975037,689.1718515742377 A 242.134642052093,242.134642052093 0 0 0 789.2134576764857,695.8828302531488 Z "/><path class="wedge" fill="url(#hiddenPattern)" d=" M 789.2134576764857,695.8828302531488 L 757.6272678872199,769.214909184718 A 321.98,321.98 0 0,1 738.637182439408,760.2909448286763 L 774.9325782975037,689.1718515742377 A 242.134642052093,242.134642052093 0 0 0 789.2134576764857,695.8828302531488 Z "/><path class="wedge" fill="rgb(223,163,159)" d=" M 780.4890017760812,678.2843053664739 L 738.637182439408,760.2909448286763 A 321.98,321.98 0 0,1 643.6736353181473,686.6494923978038 L 712.6798732696666,625.700310110824 A 229.91120128038386,229.91120128038386 0 0 0 780.4890017760812,678.2843053664739 Z "/><path class="wedge" fill="rgb(226,172,168)" d=" M 774.9325782975037,689.1718515742377 L 738.637182439408,760.2909448286763 A 321.98,321.98 0 0,1 681.1235787097628,722.7098016569287 L 731.6813333375574,660.9101687063592 A 242.134642052093,242.134642052093 0 0 0 774.9325782975037,689.1718515742377 Z "/><path class="wedge" fill="rgb(226,172,168)" d=" M 726.8673227930386,669.9092678634214 L 683.0789624646687,724.296760347209 A 321.98,321.98 0 0,1 681.1235787097628,722.7098016569287 L 725.3359812750643,668.6664551809293 A 252.155793316922,252.155793316922 0 0 0 726.8673227930386,669.9092678634214 Z "/><path class="wedge" fill="rgb(229,181,178)" d=" M 770.3772520836977,698.0977955443956 L 738.637182439408,760.2909448286763 A 321.98,321.98 0 0,1 683.7335079321228,724.8223419648384 L 727.3799242950198,670.3208724654035 A 252.155793316922,252.155793316922 0 0 0 770.3772520836977,698.0977955443956 Z "/><path class="wedge" fill="rgb(229,183,178)" d=" M 727.3799242950198,670.3208724654035 L 683.7335079321228,724.8223419648384 A 321.98,321.98 0 0,1 683.0789624646687,724.296760347209 L 726.8673227930386,669.9092678634214 A 252.155793316922,252.155793316922 0 0 0 727.3799242950198,670.3208724654035 Z "/><path class="wedge" fill="url(#hiddenPattern)" d=" M 727.3799242950198,670.3208724654035 L 683.7335079321228,724.8223419648384 A 321.98,321.98 0 0,1 683.0789624646687,724.296760347209 L 726.8673227930386,669.9092678634214 A 252.155793316922,252.155793316922 0 0 0 727.3799242950198,670.3208724654035 Z "/><path class="wedge" fill="rgb(226,174,168)" d=" M 731.6813333375574,660.9101687063592 L 681.1235787097628,722.7098016569287 A 321.98,321.98 0 0,1 645.3481255952834,688.5304617822924 L 704.7775612581551,635.2067019502815 A 242.134642052093,242.134642052093 0 0 0 731.6813333375574,660.9101687063592 Z "/><path class="wedge" fill="rgb(226,174,168)" d=" M 697.7584272465112,642.3879437262657 L 645.9095519792588,689.1545340706781 A 321.98,321.98 0 0,1 645.3481255952834,688.5304617822924 L 697.3187511323415,641.899207025337 A 252.155793316922,252.155793316922 0 0 0 697.7584272465112,642.3879437262657 Z "/><path class="wedge" fill="rgb(229,183,178)" d=" M 725.3359812750643,668.6664551809293 L 681.1235787097628,722.7098016569287 A 321.98,321.98 0 0,1 655.110763044565,698.9374838664766 L 704.9642744284752,650.049374457178 A 252.155793316922,252.155793316922 0 0 0 725.3359812750643,668.6664551809293 Z "/><path class="wedge" fill="rgb(229,183,178)" d=" M 720.040192845117,675.1398000429399 L 681.1235787097628,722.7098016569287 A 321.98,321.98 0 0,1 655.110763044565,698.9374838664766 L 698.9927905583278,655.9052218925074 A 260.5193791984254,260.5193791984254 0 0 0 720.040192845117,675.1398000429399 Z "/><path class="wedge" fill="rgb(229,184,178)" d=" M 704.9642744284752,650.049374457178 L 655.110763044565,698.9374838664766 A 321.98,321.98 0 0,1 645.9095519792588,689.1545340706781 L 697.7584272465112,642.3879437262657 A 252.155793316922,252.155793316922 0 0 0 704.9642744284752,650.049374457178 Z "/><path class="wedge" fill="url(#hiddenPattern)" d=" M 704.9642744284752,650.049374457178 L 655.110763044565,698.9374838664766 A 321.98,321.98 0 0,1 645.9095519792588,689.1545340706781 L 697.7584272465112,642.3879437262657 A 252.155793316922,252.155793316922 0 0 0 704.9642744284752,650.049374457178 Z "/><path class="wedge" fill="rgb(223,167,159)" d=" M 704.7775612581551,635.2067019502815 L 645.3481255952834,688.5304617822924 A 321.98,321.98 0 0,1 643.6736353181473,686.6494923978038 L 703.5183150196494,633.7921797792644 A 242.134642052093,242.134642052093 0 0 0 704.7775612581551,635.2067019502815 Z "/><path class="wedge" fill="url(#hiddenPattern)" d=" M 704.7775612581551,635.2067019502815 L 645.3481255952834,688.5304617822924 A 321.98,321.98 0 0,1 643.6736353181473,686.6494923978038 L 703.5183150196494,633.7921797792644 A 242.134642052093,242.134642052093 0 0 0 704.7775612581551,635.2067019502815 Z "/><path class="wedge" fill="rgb(223,167,159)" d=" M 712.6798732696666,625.700310110824 L 643.6736353181473,686.6494923978038 A 321.98,321.98 0 0,1 622.310328287831,659.6860810473029 L 697.4253121706489,606.4469704803787 A 229.91120128038386,229.91120128038386 0 0 0 712.6798732696666,625.700310110824 Z "/><path class="wedge" fill="rgb(226,175,168)" d=" M 703.5183150196494,633.7921797792644 L 643.6736353181473,686.6494923978038 A 321.98,321.98 0 0,1 622.310328287831,659.6860810473029 L 687.4527311298593,613.5152186144192 A 242.134642052093,242.134642052093 0 0 0 703.5183150196494,633.7921797792644 Z "/><path class="wedge" fill="rgb(219,159,149)" d=" M 709.8566086373047,597.6360630839132 L 622.310328287831,659.6860810473029 A 321.98,321.98 0 0,1 567.9929144403206,529.8704541844234 L 673.6414959178073,511.0839386990942 A 214.67410113006068,214.67410113006068 0 0 0 709.8566086373047,597.6360630839132 Z "/><path class="wedge" fill="rgb(223,168,159)" d=" M 697.4253121706489,606.4469704803787 L 622.310328287831,659.6860810473029 A 321.98,321.98 0 0,1 567.9929144403206,529.8704541844234 L 658.6397296247615,513.7515648122915 A 229.91120128038386,229.91120128038386 0 0 0 697.4253121706489,606.4469704803787 Z "/><path class="wedge" fill="rgb(226,176,168)" d=" M 687.4527311298593,613.5152186144192 L 622.310328287831,659.6860810473029 A 321.98,321.98 0 0,1 567.9929144403206,529.8704541844234 L 646.6050773651464,515.8915763285274 A 242.134642052093,242.134642052093 0 0 0 687.4527311298593,613.5152186144192 Z "/><path class="wedge" fill="rgb(229,185,178)" d=" M 679.2769036376676,619.3099850023336 L 622.310328287831,659.6860810473029 A 321.98,321.98 0 0,1 567.9929144403206,529.8704541844234 L 636.7387007069187,517.6460233384324 A 252.155793316922,252.155793316922 0 0 0 679.2769036376676,619.3099850023336 Z "/><path class="wedge" fill="rgb(219,164,149)" d=" M 673.6414959178073,511.0839386990942 L 567.9929144403206,529.8704541844234 A 321.98,321.98 0 0,1 564.4767416165994,442.9065164571313 L 671.2971539078989,453.10237101682515 A 214.67410113006068,214.67410113006068 0 0 0 673.6414959178073,511.0839386990942 Z "/><path class="wedge" fill="rgb(223,172,159)" d=" M 658.6397296247615,513.7515648122915 L 567.9929144403206,529.8704541844234 A 321.98,321.98 0 0,1 564.4767416165994,442.9065164571313 L 656.1289913248322,451.6545917364663 A 229.91120128038386,229.91120128038386 0 0 0 658.6397296247615,513.7515648122915 Z "/><path class="wedge" fill="rgb(226,180,168)" d=" M 646.6050773651464,515.8915763285274 L 567.9929144403206,529.8704541844234 A 321.98,321.98 0 0,1 564.2472642374397,445.4143648668366 L 643.7882823122644,452.37910674646184 A 242.134642052093,242.134642052093 0 0 0 646.6050773651464,515.8915763285274 Z "/><path class="wedge" fill="rgb(229,188,178)" d=" M 636.7387007069187,517.6460233384324 L 567.9929144403206,529.8704541844234 A 321.98,321.98 0 0,1 564.0374085440423,447.9239313834994 L 633.6409811987323,453.4703277473081 A 252.155793316922,252.155793316922 0 0 0 636.7387007069187,517.6460233384324 Z "/><path class="wedge" fill="rgb(229,188,178)" d=" M 628.5042886778378,519.1102730891957 L 567.9929144403206,529.8704541844234 A 321.98,321.98 0 0,1 563.9718192743089,448.76080882581135 L 625.250753624893,453.48310849564945 A 260.5193791984254,260.5193791984254 0 0 0 628.5042886778378,519.1102730891957 Z "/><path class="wedge" fill="rgb(229,190,178)" d=" M 625.250753624893,453.48310849564945 L 563.9718192743089,448.76080882581135 A 321.98,321.98 0 0,1 564.0374085440423,447.9239313834994 L 625.3038229951428,452.8059770224639 A 260.5193791984254,260.5193791984254 0 0 0 625.250753624893,453.48310849564945 Z "/><path class="wedge" fill="url(#hiddenPattern)" d=" M 625.250753624893,453.48310849564945 L 563.9718192743089,448.76080882581135 A 321.98,321.98 0 0,1 564.0374085440423,447.9239313834994 L 625.3038229951428,452.8059770224639 A 260.5193791984254,260.5193791984254 0 0 0 625.250753624893,453.48310849564945 Z "/><path class="wedge" fill="rgb(229,190,178)" d=" M 633.6409811987323,453.4703277473081 L 564.0374085440423,447.9239313834994 A 321.98,321.98 0 0,1 564.2472642374397,445.4143648668366 L 633.8053278315999,451.50498289392993 A 252.155793316922,252.155793316922 0 0 0 633.6409811987323,453.4703277473081 Z "/><path class="wedge" fill="url(#hiddenPattern)" d=" M 633.6409811987323,453.4703277473081 L 564.0374085440423,447.9239313834994 A 321.98,321.98 0 0,1 564.2472642374397,445.4143648668366 L 633.8053278315999,451.50498289392993 A 252.155793316922,252.155793316922 0 0 0 633.6409811987323,453.4703277473081 Z "/><path class="wedge" fill="rgb(223,174,159)" d=" M 643.7882823122644,452.37910674646184 L 564.2472642374397,445.4143648668366 A 321.98,321.98 0 0,1 564.4767416165994,442.9065164571313 L 643.9608533510304,450.49316048580937 A 242.134642052093,242.134642052093 0 0 0 643.7882823122644,452.37910674646184 Z "/><path class="wedge" fill="url(#hiddenPattern)" d=" M 643.7882823122644,452.37910674646184 L 564.2472642374397,445.4143648668366 A 321.98,321.98 0 0,1 564.4767416165994,442.9065164571313 L 643.9608533510304,450.49316048580937 A 242.134642052093,242.134642052093 0 0 0 643.7882823122644,452.37910674646184 Z "/><path class="wedge" fill="rgb(219,166,149)" d=" M 671.2971539078989,453.10237101682515 L 564.4767416165994,442.9065164571313 A 321.98,321.98 0 0,1 568.9134538804054,412.1777710598725 L 674.2552482529056,432.6145587396308 A 214.67410113006068,214.67410113006068 0 0 0 671.2971539078989,453.10237101682515 Z "/><path class="wedge" fill="rgb(223,174,159)" d=" M 656.1289913248322,451.6545917364663 L 564.4767416165994,442.9065164571313 A 321.98,321.98 0 0,1 568.9134538804054,412.1777710598725 L 659.2970447638877,429.7125991651176 A 229.91120128038386,229.91120128038386 0 0 0 656.1289913248322,451.6545917364663 Z "/><path class="wedge" fill="rgb(226,182,168)" d=" M 643.9608533510304,450.49316048580937 L 564.4767416165994,442.9065164571313 A 321.98,321.98 0 0,1 568.7546532279621,413.0020575140485 L 647.1779183760252,428.0044796300268 A 242.134642052093,242.134642052093 0 0 0 643.9608533510304,450.49316048580937 Z "/><path class="wedge" fill="rgb(229,190,178)" d=" M 633.9850410143762,449.54098356084154 L 564.4767416165994,442.9065164571313 A 321.98,321.98 0 0,1 567.0170051354205,422.9239644005893 L 635.9744259538829,433.8918244009122 A 252.155793316922,252.155793316922 0 0 0 633.9850410143762,449.54098356084154 Z "/><path class="wedge" fill="rgb(229,191,178)" d=" M 635.9744259538829,433.8918244009122 L 567.0170051354205,422.9239644005893 A 321.98,321.98 0 0,1 568.7546532279621,413.0020575140485 L 637.3352497108879,426.12157065163484 A 252.155793316922,252.155793316922 0 0 0 635.9744259538829,433.8918244009122 Z "/><path class="wedge" fill="url(#hiddenPattern)" d=" M 635.9744259538829,433.8918244009122 L 567.0170051354205,422.9239644005893 A 321.98,321.98 0 0,1 568.7546532279621,413.0020575140485 L 637.3352497108879,426.12157065163484 A 252.155793316922,252.155793316922 0 0 0 635.9744259538829,433.8918244009122 Z "/><path class="wedge" fill="rgb(223,175,159)" d=" M 647.1779183760252,428.0044796300268 L 568.7546532279621,413.0020575140485 A 321.98,321.98 0 0,1 568.9134538804054,412.1777710598725 L 647.2973392690527,427.3846016701215 A 242.134642052093,242.134642052093 0 0 0 647.1779183760252,428.0044796300268 Z "/><path class="wedge" fill="url(#hiddenPattern)" d=" M 647.1779183760252,428.0044796300268 L 568.7546532279621,413.0020575140485 A 321.98,321.98 0 0,1 568.9134538804054,412.1777710598725 L 647.2973392690527,427.3846016701215 A 242.134642052093,242.134642052093 0 0 0 647.1779183760252,428.0044796300268 Z "/><path class="wedge" fill="rgb(219,167,149)" d=" M 674.2552482529056,432.6145587396308 L 568.9134538804054,412.1777710598725 A 321.98,321.98 0 0,1 575.3519518484675,385.2435176548138 L 678.5479955164668,414.6566525363255 A 214.67410113006068,214.67410113006068 0 0 0 674.2552482529056,432.6145587396308 Z "/><path class="wedge" fill="rgb(223,175,159)" d=" M 659.2970447638877,429.7125991651176 L 568.9134538804054,412.1777710598725 A 321.98,321.98 0 0,1 575.3519518484675,385.2435176548138 L 663.8944818788589,410.4800798907921 A 229.91120128038386,229.91120128038386 0 0 0 659.2970447638877,429.7125991651176 Z "/><path class="wedge" fill="rgb(226,183,168)" d=" M 647.2973392690527,427.3846016701215 L 568.9134538804054,412.1777710598725 A 321.98,321.98 0 0,1 575.3519518484675,385.2435176548138 L 652.1392033626294,407.1295677948055 A 242.134642052093,242.134642052093 0 0 0 647.2973392690527,427.3846016701215 Z "/><path class="wedge" fill="rgb(226,183,168)" d=" M 642.3224924046168,405.0151738661839 L 575.1229082714169,386.05110965921125 A 321.98,321.98 0 0,1 575.3519518484675,385.2435176548138 L 642.5018658591025,404.38271532048157 A 252.155793316922,252.155793316922 0 0 0 642.3224924046168,405.0151738661839 Z "/><path class="wedge" fill="rgb(229,191,178)" d=" M 637.4596130393434,425.47603799503145 L 568.9134538804054,412.1777710598725 A 321.98,321.98 0 0,1 575.1229082714169,386.05110965921125 L 642.3224924046168,405.0151738661839 A 252.155793316922,252.155793316922 0 0 0 637.4596130393434,425.47603799503145 Z "/><path class="wedge" fill="rgb(229,191,178)" d=" M 629.2491124664537,423.8831635053552 L 568.9134538804054,412.1777710598725 A 321.98,321.98 0 0,1 574.2278120572762,389.2873667357897 L 633.5490481552433,405.3621562250552 A 260.5193791984254,260.5193791984254 0 0 0 629.2491124664537,423.8831635053552 Z "/><path class="wedge" fill="rgb(229,192,178)" d=" M 633.5490481552433,405.3621562250552 L 574.2278120572762,389.2873667357897 A 321.98,321.98 0 0,1 575.1229082714169,386.05110965921125 L 634.2732854060998,402.74364673838915 A 260.5193791984254,260.5193791984254 0 0 0 633.5490481552433,405.3621562250552 Z "/><path class="wedge" fill="url(#hiddenPattern)" d=" M 633.5490481552433,405.3621562250552 L 574.2278120572762,389.2873667357897 A 321.98,321.98 0 0,1 575.1229082714169,386.05110965921125 L 634.2732854060998,402.74364673838915 A 260.5193791984254,260.5193791984254 0 0 0 633.5490481552433,405.3621562250552 Z "/><path class="wedge" fill="rgb(219,168,149)" d=" M 678.5479955164668,414.6566525363255 L 575.3519518484675,385.2435176548138 A 321.98,321.98 0 0,1 583.4879377943428,360.532762517215 L 683.9725109203355,398.1812219275639 A 214.67410113006068,214.67410113006068 0 0 0 678.5479955164668,414.6566525363255 Z "/><path class="wedge" fill="rgb(223,176,159)" d=" M 663.8944818788589,410.4800798907921 L 575.3519518484675,385.2435176548138 A 321.98,321.98 0 0,1 583.4879377943428,360.532762517215 L 669.7040175718105,392.8352590999643 A 229.91120128038386,229.91120128038386 0 0 0 663.8944818788589,410.4800798907921 Z "/><path class="wedge" fill="rgb(226,184,168)" d=" M 652.1392033626294,407.1295677948055 L 575.3519518484675,385.2435176548138 A 321.98,321.98 0 0,1 581.7577764084479,365.26287960569596 L 656.9564964767338,392.1037753791412 A 242.134642052093,242.134642052093 0 0 0 652.1392033626294,407.1295677948055 Z "/><path class="wedge" fill="rgb(226,184,168)" d=" M 646.4337726978239,391.83789560577867 L 580.3726390485442,369.2249245516865 A 321.98,321.98 0 0,1 581.7577764084479,365.26287960569596 L 647.5185307878896,388.73505509856227 A 252.155793316922,252.155793316922 0 0 0 646.4337726978239,391.83789560577867 Z "/><path class="wedge" fill="rgb(229,192,178)" d=" M 642.5018658591025,404.38271532048157 L 575.3519518484675,385.2435176548138 A 321.98,321.98 0 0,1 580.3726390485442,369.2249245516865 L 646.4337726978239,391.83789560577867 A 252.155793316922,252.155793316922 0 0 0 642.5018658591025,404.38271532048157 Z "/><path class="wedge" fill="rgb(223,177,159)" d=" M 656.9564964767338,392.1037753791412 L 581.7577764084479,365.26287960569596 A 321.98,321.98 0 0,1 583.4879377943428,360.532762517215 L 658.2576083714666,388.5466438551838 A 242.134642052093,242.134642052093 0 0 0 656.9564964767338,392.1037753791412 Z "/><path class="wedge" fill="url(#hiddenPattern)" d=" M 656.9564964767338,392.1037753791412 L 581.7577764084479,365.26287960569596 A 321.98,321.98 0 0,1 583.4879377943428,360.532762517215 L 658.2576083714666,388.5466438551838 A 242.134642052093,242.134642052093 0 0 0 656.9564964767338,392.1037753791412 Z "/><path class="wedge" fill="rgb(216,162,140)" d=" M 683.9725109203355,398.1812219275639 L 583.4879377943428,360.532762517215 A 321.98,321.98 0 0,1 588.4611845189154,348.0573784032106 L 687.2883295124705,389.8634945192586 A 214.67410113006068,214.67410113006068 0 0 0 683.9725109203355,398.1812219275639 Z "/><path class="wedge" fill="url(#hiddenPattern)" d=" M 683.9725109203355,398.1812219275639 L 583.4879377943428,360.532762517215 A 321.98,321.98 0 0,1 588.4611845189154,348.0573784032106 L 687.2883295124705,389.8634945192586 A 214.67410113006068,214.67410113006068 0 0 0 683.9725109203355,398.1812219275639 Z "/><path class="wedge" fill="rgb(213,155,130)" d=" M 729.0807873716801,407.54264882601416 L 588.4611845189154,348.0573784032106 A 321.98,321.98 0 0,1 647.0372763047324,256.6017230784677 L 759.8799193344614,359.4555417621144 A 169.29611052981613,169.29611052981613 0 0 0 729.0807873716801,407.54264882601416 Z "/><path class="wedge" fill="rgb(216,162,140)" d=" M 705.2598818257877,397.4658673576642 L 588.4611845189154,348.0573784032106 A 321.98,321.98 0 0,1 637.1243136499659,268.003614346871 L 734.7559077222691,348.94313690690194 A 195.16070149482482,195.16070149482482 0 0 0 705.2598818257877,397.4658673576642 Z "/><path class="wedge" fill="rgb(219,170,149)" d=" M 687.2883295124705,389.8634945192586 L 588.4611845189154,348.0573784032106 A 321.98,321.98 0 0,1 613.8653322273378,299.84196726955565 L 704.226066559122,357.71677718981675 A 214.67410113006068,214.67410113006068 0 0 0 687.2883295124705,389.8634945192586 Z "/><path class="wedge" fill="rgb(223,178,159)" d=" M 673.2551857459524,383.927157515751 L 588.4611845189154,348.0573784032106 A 321.98,321.98 0 0,1 613.8653322273378,299.84196726955565 L 691.3951264787547,349.4987362039733 A 229.91120128038386,229.91120128038386 0 0 0 673.2551857459524,383.927157515751 Z "/><path class="wedge" fill="rgb(226,185,168)" d=" M 661.9975776723272,379.16493484559675 L 588.4611845189154,348.0573784032106 A 321.98,321.98 0 0,1 613.8653322273378,299.84196726955565 L 681.10194506166,342.906094805091 A 242.134642052093,242.134642052093 0 0 0 661.9975776723272,379.16493484559675 Z "/><path class="wedge" fill="rgb(229,193,178)" d=" M 652.7682456460238,375.26071878845613 L 588.4611845189154,348.0573784032106 A 321.98,321.98 0 0,1 613.8653322273378,299.84196726955565 L 672.6632795579361,337.5012453910143 A 252.155793316922,252.155793316922 0 0 0 652.7682456460238,375.26071878845613 Z "/><path class="wedge" fill="rgb(229,193,178)" d=" M 645.0655068098374,372.0022861562253 L 588.4611845189154,348.0573784032106 A 321.98,321.98 0 0,1 613.8653322273378,299.84196726955565 L 665.6204257180407,332.9903941867346 A 260.5193791984254,260.5193791984254 0 0 0 645.0655068098374,372.0022861562253 Z "/><path class="wedge" fill="rgb(219,172,149)" d=" M 704.226066559122,357.71677718981675 L 613.8653322273378,299.84196726955565 A 321.98,321.98 0 0,1 637.1243136499659,268.003614346871 L 719.7335543847742,336.4891549923543 A 214.67410113006068,214.67410113006068 0 0 0 704.226066559122,357.71677718981675 Z "/><path class="wedge" fill="rgb(223,179,159)" d=" M 691.3951264787547,349.4987362039733 L 613.8653322273378,299.84196726955565 A 321.98,321.98 0 0,1 634.4666699469042,271.2522041343675 L 706.1056001202492,329.08409309964156 A 229.91120128038386,229.91120128038386 0 0 0 691.3951264787547,349.4987362039733 Z "/><path class="wedge" fill="rgb(223,179,159)" d=" M 681.10194506166,342.906094805091 L 613.8653322273378,299.84196726955565 A 321.98,321.98 0 0,1 634.4666699469042,271.2522041343675 L 696.5945145831256,321.4060883975722 A 242.134642052093,242.134642052093 0 0 0 681.10194506166,342.906094805091 Z "/><path class="wedge" fill="url(#hiddenPattern)" d=" M 681.10194506166,342.906094805091 L 613.8653322273378,299.84196726955565 A 321.98,321.98 0 0,1 634.4666699469042,271.2522041343675 L 696.5945145831256,321.4060883975722 A 242.134642052093,242.134642052093 0 0 0 681.10194506166,342.906094805091 Z "/><path class="wedge" fill="rgb(219,173,149)" d=" M 706.1056001202492,329.08409309964156 L 634.4666699469042,271.2522041343675 A 321.98,321.98 0 0,1 637.1243136499659,268.003614346871 L 708.0033020158519,326.7644236154795 A 229.91120128038386,229.91120128038386 0 0 0 706.1056001202492,329.08409309964156 Z "/><path class="wedge" fill="url(#hiddenPattern)" d=" M 706.1056001202492,329.08409309964156 L 634.4666699469042,271.2522041343675 A 321.98,321.98 0 0,1 637.1243136499659,268.003614346871 L 708.0033020158519,326.7644236154795 A 229.91120128038386,229.91120128038386 0 0 0 706.1056001202492,329.08409309964156 Z "/><path class="wedge" fill="rgb(213,158,130)" d=" M 734.7559077222691,348.94313690690194 L 637.1243136499659,268.003614346871 A 321.98,321.98 0 0,1 647.0372763047324,256.6017230784677 L 740.7644198832611,342.0321452356512 A 195.16070149482482,195.16070149482482 0 0 0 734.7559077222691,348.94313690690194 Z "/><path class="wedge" fill="url(#hiddenPattern)" d=" M 734.7559077222691,348.94313690690194 L 637.1243136499659,268.003614346871 A 321.98,321.98 0 0,1 647.0372763047324,256.6017230784677 L 740.7644198832611,342.0321452356512 A 195.16070149482482,195.16070149482482 0 0 0 734.7559077222691,348.94313690690194 Z "/><path class="wedge" fill="rgb(210,152,121)" d=" M 759.8799193344614,359.4555417621144 L 647.0372763047324,256.6017230784677 A 321.98,321.98 0 0,1 658.6652153153339,244.49413622846726 L 765.9938545104746,353.0894092023063 A 169.29611052981613,169.29611052981613 0 0 0 759.8799193344614,359.4555417621144 Z "/><path class="wedge" fill="url(#hiddenPattern)" d=" M 759.8799193344614,359.4555417621144 L 647.0372763047324,256.6017230784677 A 321.98,321.98 0 0,1 658.6652153153339,244.49413622846726 L 765.9938545104746,353.0894092023063 A 169.29611052981613,169.29611052981613 0 0 0 759.8799193344614,359.4555417621144 Z "/><path class="wedge" fill="rgb(210,152,121)" d=" M 791.209058628708,378.6021893404392 L 658.6652153153339,244.49413622846726 A 321.98,321.98 0 0,1 939.3030740837444,156.13223770355097 L 907.5026676512197,341.9858749036069 A 133.4253917037195,133.4253917037195 0 0 0 791.209058628708,378.6021893404392 Z "/><path class="wedge" fill="rgb(213,160,130)" d=" M 765.9938545104746,353.0894092023063 L 658.6652153153339,244.49413622846726 A 321.98,321.98 0 0,1 797.9551289051158,163.50917623891672 L 839.2320699486518,310.5077620886853 A 169.29611052981613,169.29611052981613 0 0 0 765.9938545104746,353.0894092023063 Z "/><path class="wedge" fill="rgb(216,167,140)" d=" M 747.8124251452277,334.6934125719591 L 658.6652153153339,244.49413622846726 A 321.98,321.98 0 0,1 723.1626028995317,195.14810527006398 L 786.9060191744087,304.78346158796217 A 195.16070149482482,195.16070149482482 0 0 0 747.8124251452277,334.6934125719591 Z "/><path class="wedge" fill="rgb(219,174,149)" d=" M 734.095544888979,320.8146532124141 L 658.6652153153339,244.49413622846726 A 321.98,321.98 0 0,1 722.4374539292077,195.5709820566022 L 776.6144839581297,288.1960615412155 A 214.67410113006068,214.67410113006068 0 0 0 734.095544888979,320.8146532124141 Z "/><path class="wedge" fill="rgb(223,182,159)" d=" M 723.3846753264531,309.97737983736556 L 658.6652153153339,244.49413622846726 A 321.98,321.98 0 0,1 722.4374539292077,195.5709820566022 L 768.9215160869196,275.0435915707685 A 229.91120128038386,229.91120128038386 0 0 0 723.3846753264531,309.97737983736556 Z "/><path class="wedge" fill="rgb(226,189,168)" d=" M 714.7922477372533,301.2835491268077 L 658.6652153153339,244.49413622846726 A 321.98,321.98 0 0,1 722.4374539292077,195.5709820566022 L 762.7500965776502,264.4924738318705 A 242.134642052093,242.134642052093 0 0 0 714.7922477372533,301.2835491268077 Z "/><path class="wedge" fill="rgb(229,196,178)" d=" M 707.7479123318941,294.15608033561773 L 658.6652153153339,244.49413622846726 A 321.98,321.98 0 0,1 722.4374539292077,195.5709820566022 L 757.6905777747086,255.84234422849084 A 252.155793316922,252.155793316922 0 0 0 707.7479123318941,294.15608033561773 Z "/><path class="wedge" fill="rgb(216,170,140)" d=" M 776.6144839581297,288.1960615412155 L 722.4374539292077,195.5709820566022 A 321.98,321.98 0 0,1 723.1626028995317,195.14810527006398 L 777.0979633773163,287.91411640785674 A 214.67410113006068,214.67410113006068 0 0 0 776.6144839581297,288.1960615412155 Z "/><path class="wedge" fill="url(#hiddenPattern)" d=" M 776.6144839581297,288.1960615412155 L 722.4374539292077,195.5709820566022 A 321.98,321.98 0 0,1 723.1626028995317,195.14810527006398 L 777.0979633773163,287.91411640785674 A 214.67410113006068,214.67410113006068 0 0 0 776.6144839581297,288.1960615412155 Z "/><path class="wedge" fill="rgb(216,170,140)" d=" M 786.9060191744087,304.78346158796217 L 723.1626028995317,195.14810527006398 A 321.98,321.98 0 0,1 761.4928179625509,176.1498757606306 L 810.1389891108839,293.26812585834944 A 195.16070149482482,195.16070149482482 0 0 0 786.9060191744087,304.78346158796217 Z "/><path class="wedge" fill="rgb(219,177,149)" d=" M 777.0979633773163,287.91411640785674 L 723.1626028995317,195.14810527006398 A 321.98,321.98 0 0,1 754.5503800448629,179.1294562060254 L 798.0251726609507,277.23398382465166 A 214.67410113006068,214.67410113006068 0 0 0 777.0979633773163,287.91411640785674 Z "/><path class="wedge" fill="rgb(223,184,159)" d=" M 769.4393118222897,274.7416345859043 L 723.1626028995317,195.14810527006398 A 321.98,321.98 0 0,1 754.5503800448629,179.1294562060254 L 791.8518888426141,263.30344945265995 A 229.91120128038386,229.91120128038386 0 0 0 769.4393118222897,274.7416345859043 Z "/><path class="wedge" fill="rgb(226,191,168)" d=" M 763.2954214001978,264.1744630257938 L 723.1626028995317,195.14810527006398 A 321.98,321.98 0 0,1 754.5503800448629,179.1294562060254 L 786.8995837205147,252.1281562450028 A 242.134642052093,242.134642052093 0 0 0 763.2954214001978,264.1744630257938 Z "/><path class="wedge" fill="rgb(229,198,178)" d=" M 758.258471786402,255.51117200790307 L 723.1626028995317,195.14810527006398 A 321.98,321.98 0 0,1 754.5503800448629,179.1294562060254 L 782.839532245237,242.96630846790674 A 252.155793316922,252.155793316922 0 0 0 758.258471786402,255.51117200790307 Z "/><path class="wedge" fill="rgb(229,198,178)" d=" M 754.0546672970277,248.28084721489415 L 723.1626028995317,195.14810527006398 A 321.98,321.98 0 0,1 754.5503800448629,179.1294562060254 L 779.4510404143648,235.3198915351601 A 260.5193791984254,260.5193791984254 0 0 0 754.0546672970277,248.28084721489415 Z "/><path class="wedge" fill="rgb(229,199,178)" d=" M 782.839532245237,242.96630846790674 L 754.5503800448629,179.1294562060254 A 321.98,321.98 0 0,1 754.5503800448629,179.1294562060254 L 782.839532245237,242.96630846790674 A 252.155793316922,252.155793316922 0 0 0 782.839532245237,242.96630846790674 Z "/><path class="wedge" fill="url(#hiddenPattern)" d=" M 782.839532245237,242.96630846790674 L 754.5503800448629,179.1294562060254 A 321.98,321.98 0 0,1 754.5503800448629,179.1294562060254 L 782.839532245237,242.96630846790674 A 252.155793316922,252.155793316922 0 0 0 782.839532245237,242.96630846790674 Z "/><path class="wedge" fill="rgb(216,171,140)" d=" M 798.0251726609507,277.23398382465166 L 754.5503800448629,179.1294562060254 A 321.98,321.98 0 0,1 761.4928179625509,176.1498757606306 L 802.6539123951918,275.24740467731385 A 214.67410113006068,214.67410113006068 0 0 0 798.0251726609507,277.23398382465166 Z "/><path class="wedge" fill="url(#hiddenPattern)" d=" M 798.0251726609507,277.23398382465166 L 754.5503800448629,179.1294562060254 A 321.98,321.98 0 0,1 761.4928179625509,176.1498757606306 L 802.6539123951918,275.24740467731385 A 214.67410113006068,214.67410113006068 0 0 0 798.0251726609507,277.23398382465166 Z "/><path class="wedge" fill="rgb(213,164,130)" d=" M 810.1389891108839,293.26812585834944 L 761.4928179625509,176.1498757606306 A 321.98,321.98 0 0,1 794.7271741627808,164.43376548810267 L 830.2832225097465,286.1666776330644 A 195.16070149482482,195.16070149482482 0 0 0 810.1389891108839,293.26812585834944 Z "/><path class="wedge" fill="url(#hiddenPattern)" d=" M 810.1389891108839,293.26812585834944 L 761.4928179625509,176.1498757606306 A 321.98,321.98 0 0,1 794.7271741627808,164.43376548810267 L 830.2832225097465,286.1666776330644 A 195.16070149482482,195.16070149482482 0 0 0 810.1389891108839,293.26812585834944 Z "/><path class="wedge" fill="rgb(213,166,130)" d=" M 830.2832225097465,286.1666776330644 L 794.7271741627808,164.43376548810267 A 321.98,321.98 0 0,1 797.9551289051158,163.50917623891672 L 832.2397723324299,285.6062593261332 A 195.16070149482482,195.16070149482482 0 0 0 830.2832225097465,286.1666776330644 Z "/><path class="wedge" fill="url(#hiddenPattern)" d=" M 830.2832225097465,286.1666776330644 L 794.7271741627808,164.43376548810267 A 321.98,321.98 0 0,1 797.9551289051158,163.50917623891672 L 832.2397723324299,285.6062593261332 A 195.16070149482482,195.16070149482482 0 0 0 830.2832225097465,286.1666776330644 Z "/><path class="wedge" fill="rgb(213,166,130)" d=" M 839.2320699486518,310.5077620886853 L 797.9551289051158,163.50917623891672 A 321.98,321.98 0 0,1 875.7673818458112,151.65239761337517 L 880.1455172883063,304.2735037350073 A 169.29611052981613,169.29611052981613 0 0 0 839.2320699486518,310.5077620886853 Z "/><path class="wedge" fill="rgb(216,173,140)" d=" M 832.2397723324299,285.6062593261332 L 797.9551289051158,163.50917623891672 A 321.98,321.98 0 0,1 875.7673818458112,151.65239761337517 L 879.4038628622731,278.4195482446079 A 195.16070149482482,195.16070149482482 0 0 0 832.2397723324299,285.6062593261332 Z "/><path class="wedge" fill="rgb(219,180,149)" d=" M 826.9644715191122,266.81945633431394 L 797.9551289051158,163.50917623891672 A 321.98,321.98 0 0,1 865.7043566855715,152.09869547700595 L 872.1349932161899,259.2117331806241 A 214.67410113006068,214.67410113006068 0 0 0 826.9644715191122,266.81945633431394 Z "/><path class="wedge" fill="rgb(223,186,159)" d=" M 822.8452361055935,252.14972148330202 L 797.9551289051158,163.50917623891672 A 321.98,321.98 0 0,1 841.4825037014919,154.47437733638174 L 853.9261449447026,245.69838453998716 A 229.91120128038386,229.91120128038386 0 0 0 822.8452361055935,252.14972148330202 Z "/><path class="wedge" fill="rgb(226,193,168)" d=" M 819.5407208366036,240.38143005521044 L 797.9551289051158,163.50917623891672 A 321.98,321.98 0 0,1 841.4825037014919,154.47437733638174 L 852.2740748206642,233.5871018414147 A 242.134642052093,242.134642052093 0 0 0 819.5407208366036,240.38143005521044 Z "/><path class="wedge" fill="rgb(229,200,178)" d=" M 816.8315779703717,230.73342416782995 L 797.9551289051158,163.50917623891672 A 321.98,321.98 0 0,1 827.3902616065221,156.71578568016514 L 839.8834421784343,225.41324035003478 A 252.155793316922,252.155793316922 0 0 0 816.8315779703717,230.73342416782995 Z "/><path class="wedge" fill="rgb(229,200,178)" d=" M 814.5705454374613,222.6812629248838 L 797.9551289051158,163.50917623891672 A 321.98,321.98 0 0,1 827.3902616065221,156.71578568016514 L 838.3870014222854,217.18461750896233 A 260.5193791984254,260.5193791984254 0 0 0 814.5705454374613,222.6812629248838 Z "/><path class="wedge" fill="rgb(229,200,178)" d=" M 812.6551382597419,215.8599690176082 L 797.9551289051158,163.50917623891672 A 321.98,321.98 0 0,1 827.3902616065221,156.71578568016514 L 837.1193091959954,210.21383622955767 A 267.60449283378045,267.60449283378045 0 0 0 812.6551382597419,215.8599690176082 Z "/><path class="wedge" fill="rgb(226,194,168)" d=" M 839.8834421784343,225.41324035003478 L 827.3902616065221,156.71578568016514 A 321.98,321.98 0 0,1 841.4825037014919,154.47437733638174 L 850.9196571143657,223.65790120141105 A 252.155793316922,252.155793316922 0 0 0 839.8834421784343,225.41324035003478 Z "/><path class="wedge" fill="url(#hiddenPattern)" d=" M 839.8834421784343,225.41324035003478 L 827.3902616065221,156.71578568016514 A 321.98,321.98 0 0,1 841.4825037014919,154.47437733638174 L 850.9196571143657,223.65790120141105 A 252.155793316922,252.155793316922 0 0 0 839.8834421784343,225.41324035003478 Z "/><path class="wedge" fill="rgb(223,188,159)" d=" M 853.9261449447026,245.69838453998716 L 841.4825037014919,154.47437733638174 A 321.98,321.98 0 0,1 862.3537256655115,152.31739359241897 L 868.8293305895791,244.15818103754376 A 229.91120128038386,229.91120128038386 0 0 0 853.9261449447026,245.69838453998716 Z "/><path class="wedge" fill="rgb(226,194,168)" d=" M 852.2740748206642,233.5871018414147 L 841.4825037014919,154.47437733638174 A 321.98,321.98 0 0,1 862.3537256655115,152.31739359241897 L 867.9696020566655,231.96501200118672 A 242.134642052093,242.134642052093 0 0 0 852.2740748206642,233.5871018414147 Z "/><path class="wedge" fill="rgb(229,201,178)" d=" M 850.9196571143657,223.65790120141105 L 841.4825037014919,154.47437733638174 A 321.98,321.98 0 0,1 859.0055574982892,152.57102131620263 L 864.6426819341264,222.16730474438637 A 252.155793316922,252.155793316922 0 0 0 850.9196571143657,223.65790120141105 Z "/><path class="wedge" fill="rgb(229,201,178)" d=" M 849.7892691472853,215.37105669694722 L 841.4825037014919,154.47437733638174 A 321.98,321.98 0 0,1 859.0055574982892,152.57102131620263 L 863.9674637457144,213.83101964877454 A 260.5193791984254,260.5193791984254 0 0 0 849.7892691472853,215.37105669694722 Z "/><path class="wedge" fill="url(#hiddenPattern)" d=" M 849.7892691472853,215.37105669694722 L 841.4825037014919,154.47437733638174 A 321.98,321.98 0 0,1 859.0055574982892,152.57102131620263 L 863.9674637457144,213.83101964877454 A 260.5193791984254,260.5193791984254 0 0 0 849.7892691472853,215.37105669694722 Z "/><path class="wedge" fill="rgb(226,195,168)" d=" M 864.6426819341264,222.16730474438637 L 859.0055574982892,152.57102131620263 A 321.98,321.98 0 0,1 862.3537256655115,152.31739359241897 L 867.2647702637258,221.9686784325104 A 252.155793316922,252.155793316922 0 0 0 864.6426819341264,222.16730474438637 Z "/><path class="wedge" fill="url(#hiddenPattern)" d=" M 864.6426819341264,222.16730474438637 L 859.0055574982892,152.57102131620263 A 321.98,321.98 0 0,1 862.3537256655115,152.31739359241897 L 867.2647702637258,221.9686784325104 A 252.155793316922,252.155793316922 0 0 0 864.6426819341264,222.16730474438637 Z "/><path class="wedge" fill="rgb(219,182,149)" d=" M 868.8293305895791,244.15818103754376 L 862.3537256655115,152.31739359241897 A 321.98,321.98 0 0,1 865.7043566855715,152.09869547700595 L 871.2218630539224,244.0020187093483 A 229.91120128038386,229.91120128038386 0 0 0 868.8293305895791,244.15818103754376 Z "/><path class="wedge" fill="url(#hiddenPattern)" d=" M 868.8293305895791,244.15818103754376 L 862.3537256655115,152.31739359241897 A 321.98,321.98 0 0,1 865.7043566855715,152.09869547700595 L 871.2218630539224,244.0020187093483 A 229.91120128038386,229.91120128038386 0 0 0 868.8293305895791,244.15818103754376 Z "/><path class="wedge" fill="rgb(216,175,140)" d=" M 872.1349932161899,259.2117331806241 L 865.7043566855715,152.09869547700595 A 321.98,321.98 0 0,1 875.7673818458112,151.65239761337517 L 878.844325724183,258.9141724852045 A 214.67410113006068,214.67410113006068 0 0 0 872.1349932161899,259.2117331806241 Z "/><path class="wedge" fill="url(#hiddenPattern)" d=" M 872.1349932161899,259.2117331806241 L 865.7043566855715,152.09869547700595 A 321.98,321.98 0 0,1 875.7673818458112,151.65239761337517 L 878.844325724183,258.9141724852045 A 214.67410113006068,214.67410113006068 0 0 0 872.1349932161899,259.2117331806241 Z "/><path class="wedge" fill="rgb(213,169,130)" d=" M 880.1455172883063,304.2735037350073 L 875.7673818458112,151.65239761337517 A 321.98,321.98 0 0,1 933.5024178146831,155.19411587887674 L 910.5024246453752,306.13572849102263 A 169.29611052981613,169.29611052981613 0 0 0 880.1455172883063,304.2735037350073 Z "/><path class="wedge" fill="rgb(216,176,140)" d=" M 879.4038628622731,278.4195482446079 L 875.7673818458112,151.65239761337517 A 321.98,321.98 0 0,1 898.4272089409791,151.80009253956058 L 893.1385909560813,278.5090700950383 A 195.16070149482482,195.16070149482482 0 0 0 879.4038628622731,278.4195482446079 Z "/><path class="wedge" fill="rgb(219,182,149)" d=" M 878.844325724183,258.9141724852045 L 875.7673818458112,151.65239761337517 A 321.98,321.98 0 0,1 898.4272089409791,151.80009253956058 L 893.9523386859128,259.0126452956906 A 214.67410113006068,214.67410113006068 0 0 0 878.844325724183,258.9141724852045 Z "/><path class="wedge" fill="rgb(223,189,159)" d=" M 878.4074093707912,243.68333780383796 L 875.7673818458112,151.65239761337517 A 321.98,321.98 0 0,1 898.4272089409791,151.80009253956058 L 894.5877561881583,243.78879999994425 A 229.91120128038386,229.91120128038386 0 0 0 878.4074093707912,243.68333780383796 Z "/><path class="wedge" fill="rgb(226,195,168)" d=" M 878.0569082180007,231.46492328961503 L 875.7673818458112,151.65239761337517 A 321.98,321.98 0 0,1 898.4272089409791,151.80009253956058 L 895.0974980765346,231.5759924805114 A 242.134642052093,242.134642052093 0 0 0 878.0569082180007,231.46492328961503 Z "/><path class="wedge" fill="rgb(229,202,178)" d=" M 877.7695566337608,221.44789270467524 L 875.7673818458112,151.65239761337517 A 321.98,321.98 0 0,1 898.4272089409791,151.80009253956058 L 895.5154000948651,221.5635586816961 A 252.155793316922,252.155793316922 0 0 0 877.7695566337608,221.44789270467524 Z "/><path class="wedge" fill="rgb(223,189,159)" d=" M 894.5877561881583,243.78879999994425 L 898.4272089409791,151.80009253956058 A 321.98,321.98 0 0,1 898.4272089409791,151.80009253956058 L 894.5877561881583,243.78879999994425 A 229.91120128038386,229.91120128038386 0 0 0 894.5877561881583,243.78879999994425 Z "/><path class="wedge" fill="url(#hiddenPattern)" d=" M 894.5877561881583,243.78879999994425 L 898.4272089409791,151.80009253956058 A 321.98,321.98 0 0,1 898.4272089409791,151.80009253956058 L 894.5877561881583,243.78879999994425 A 229.91120128038386,229.91120128038386 0 0 0 894.5877561881583,243.78879999994425 Z "/><path class="wedge" fill="rgb(213,171,130)" d=" M 893.1385909560813,278.5090700950383 L 898.4272089409791,151.80009253956058 A 321.98,321.98 0 0,1 933.5024178146831,155.19411587887674 L 914.3986144633476,280.5662785421181 A 195.16070149482482,195.16070149482482 0 0 0 893.1385909560813,278.5090700950383 Z "/><path class="wedge" fill="url(#hiddenPattern)" d=" M 893.1385909560813,278.5090700950383 L 898.4272089409791,151.80009253956058 A 321.98,321.98 0 0,1 933.5024178146831,155.19411587887674 L 914.3986144633476,280.5662785421181 A 195.16070149482482,195.16070149482482 0 0 0 893.1385909560813,278.5090700950383 Z "/><path class="wedge" fill="rgb(210,165,121)" d=" M 910.5024246453752,306.13572849102263 L 933.5024178146831,155.19411587887674 A 321.98,321.98 0 0,1 939.3030740837444,156.13223770355097 L 913.5523921740182,306.6289901101309 A 169.29611052981613,169.29611052981613 0 0 0 910.5024246453752,306.13572849102263 Z "/><path class="wedge" fill="url(#hiddenPattern)" d=" M 910.5024246453752,306.13572849102263 L 933.5024178146831,155.19411587887674 A 321.98,321.98 0 0,1 939.3030740837444,156.13223770355097 L 913.5523921740182,306.6289901101309 A 169.29611052981613,169.29611052981613 0 0 0 910.5024246453752,306.13572849102263 Z "/><path class="wedge" fill="rgb(207,159,111)" d=" M 907.5026676512197,341.9858749036069 L 939.3030740837444,156.13223770355097 A 321.98,321.98 0 0,1 940.130307872381,156.2748913564746 L 907.8454653165386,342.0449891949272 A 133.4253917037195,133.4253917037195 0 0 0 907.5026676512197,341.9858749036069 Z "/><path class="wedge" fill="url(#hiddenPattern)" d=" M 907.5026676512197,341.9858749036069 L 939.3030740837444,156.13223770355097 A 321.98,321.98 0 0,1 940.130307872381,156.2748913564746 L 907.8454653165386,342.0449891949272 A 133.4253917037195,133.4253917037195 0 0 0 907.5026676512197,341.9858749036069 Z "/><path class="wedge" fill="rgb(188,207,111)" d=" M 898.7825769680952,394.19372283911866 L 940.130307872381,156.2748913564746 A 321.98,321.98 0 0,1 1007.7315324915941,175.8288873063683 L 915.6828831228985,399.0822218265921 A 80.495,80.495 0 0 0 898.7825769680952,394.19372283911866 Z "/><path class="wedge" fill="rgb(188,207,111)" d=" M 929.0324325457992,347.54969219811085 L 991.2583549507483,169.5587517246782 A 321.98,321.98 0 0,1 1007.7315324915941,175.8288873063683 L 935.858757677771,350.14797561951104 A 133.4253917037195,133.4253917037195 0 0 0 929.0324325457992,347.54969219811085 Z "/><path class="wedge" fill="rgb(192,210,121)" d=" M 907.8454653165386,342.0449891949272 L 940.130307872381,156.2748913564746 A 321.98,321.98 0 0,1 965.5609144876688,161.76123202766303 L 918.383662250845,344.31847560114295 A 133.4253917037195,133.4253917037195 0 0 0 907.8454653165386,342.0449891949272 Z "/><path class="wedge" fill="rgb(192,210,121)" d=" M 913.9873491990354,306.703996969541 L 940.130307872381,156.2748913564746 A 321.98,321.98 0 0,1 962.3056177732557,160.93806715997016 L 925.647060100369,309.1558807084333 A 169.29611052981613,169.29611052981613 0 0 0 913.9873491990354,306.703996969541 Z "/><path class="wedge" fill="url(#hiddenPattern)" d=" M 913.9873491990354,306.703996969541 L 940.130307872381,156.2748913564746 A 321.98,321.98 0 0,1 962.3056177732557,160.93806715997016 L 925.647060100369,309.1558807084333 A 169.29611052981613,169.29611052981613 0 0 0 913.9873491990354,306.703996969541 Z "/><path class="wedge" fill="rgb(178,210,121)" d=" M 925.647060100369,309.1558807084333 L 962.3056177732557,160.93806715997016 A 321.98,321.98 0 0,1 965.5609144876688,161.76123202766303 L 927.3586852707853,309.5886983071201 A 169.29611052981613,169.29611052981613 0 0 0 925.647060100369,309.1558807084333 Z "/><path class="wedge" fill="url(#hiddenPattern)" d=" M 925.647060100369,309.1558807084333 L 962.3056177732557,160.93806715997016 A 321.98,321.98 0 0,1 965.5609144876688,161.76123202766303 L 927.3586852707853,309.5886983071201 A 169.29611052981613,169.29611052981613 0 0 0 925.647060100369,309.1558807084333 Z "/><path class="wedge" fill="rgb(159,207,111)" d=" M 918.383662250845,344.31847560114295 L 965.5609144876688,161.76123202766303 A 321.98,321.98 0 0,1 991.2583549507483,169.5587517246782 L 929.0324325457992,347.54969219811085 A 133.4253917037195,133.4253917037195 0 0 0 918.383662250845,344.31847560114295 Z "/><path class="wedge" fill="url(#hiddenPattern)" d=" M 918.383662250845,344.31847560114295 L 965.5609144876688,161.76123202766303 A 321.98,321.98 0 0,1 991.2583549507483,169.5587517246782 L 929.0324325457992,347.54969219811085 A 133.4253917037195,133.4253917037195 0 0 0 918.383662250845,344.31847560114295 Z "/><path class="wedge" fill="rgb(111,207,149)" d=" M 915.6828831228985,399.0822218265921 L 1007.7315324915941,175.8288873063683 A 321.98,321.98 0 0,1 1054.0385747014225,199.4615343370358 L 927.2596436753556,404.99038358425895 A 80.495,80.495 0 0 0 915.6828831228985,399.0822218265921 Z "/><path class="wedge" fill="rgb(121,210,156)" d=" M 935.858757677771,350.14797561951104 L 1007.7315324915941,175.8288873063683 A 321.98,321.98 0 0,1 1053.3235468892192,199.02176049341756 L 954.7516466136203,359.75887750694733 A 133.4253917037195,133.4253917037195 0 0 0 935.858757677771,350.14797561951104 Z "/><path class="wedge" fill="rgb(130,213,163)" d=" M 949.531868719146,316.98542892069565 L 1007.7315324915941,175.8288873063683 A 321.98,321.98 0 0,1 1053.3235468892192,199.02176049341756 L 973.5040120471083,329.18017152141215 A 169.29611052981613,169.29611052981613 0 0 0 949.531868719146,316.98542892069565 Z "/><path class="wedge" fill="rgb(140,216,170)" d=" M 959.3908689253817,293.0735661592825 L 1007.7315324915941,175.8288873063683 A 321.98,321.98 0 0,1 1033.6014224452908,187.86257659887025 L 975.0713020919055,300.36750753419847 A 195.16070149482482,195.16070149482482 0 0 0 959.3908689253817,293.0735661592825 Z "/><path class="wedge" fill="rgb(149,219,177)" d=" M 966.828937877967,275.0333916706305 L 1007.7315324915941,175.8288873063683 A 321.98,321.98 0 0,1 1030.614619469429,186.328443266445 L 982.0858051617973,282.03377286820256 A 214.67410113006068,214.67410113006068 0 0 0 966.828937877967,275.0333916706305 Z "/><path class="wedge" fill="rgb(159,223,184)" d=" M 972.6369776698083,260.94666406031 L 1007.7315324915941,175.8288873063683 A 321.98,321.98 0 0,1 1030.614619469429,186.328443266445 L 988.9767441648625,268.44391706885665 A 229.91120128038386,229.91120128038386 0 0 0 972.6369776698083,260.94666406031 Z "/><path class="wedge" fill="rgb(168,226,191)" d=" M 977.2962783041088,249.64607018659314 L 1007.7315324915941,175.8288873063683 A 321.98,321.98 0 0,1 1030.614619469429,186.328443266445 L 994.5047635343249,257.5419215565512 A 242.134642052093,242.134642052093 0 0 0 977.2962783041088,249.64607018659314 Z "/><path class="wedge" fill="rgb(178,229,198)" d=" M 981.1161157227763,240.38149708431087 L 1007.7315324915941,175.8288873063683 A 321.98,321.98 0 0,1 1030.614619469429,186.328443266445 L 999.0368031891906,248.6041316038107 A 252.155793316922,252.155793316922 0 0 0 981.1161157227763,240.38149708431087 Z "/><path class="wedge" fill="rgb(178,229,198)" d=" M 984.3041265071789,232.64934628160304 L 1007.7315324915941,175.8288873063683 A 321.98,321.98 0 0,1 1030.614619469429,186.328443266445 L 1002.8192132007907,241.1447118340545 A 260.5193791984254,260.5193791984254 0 0 0 984.3041265071789,232.64934628160304 Z "/><path class="wedge" fill="rgb(140,216,188)" d=" M 982.0858051617973,282.03377286820256 L 1030.614619469429,186.328443266445 A 321.98,321.98 0 0,1 1033.6014224452908,187.86257659887025 L 984.0771997953016,283.05662737516593 A 214.67410113006068,214.67410113006068 0 0 0 982.0858051617973,282.03377286820256 Z "/><path class="wedge" fill="url(#hiddenPattern)" d=" M 982.0858051617973,282.03377286820256 L 1030.614619469429,186.328443266445 A 321.98,321.98 0 0,1 1033.6014224452908,187.86257659887025 L 984.0771997953016,283.05662737516593 A 214.67410113006068,214.67410113006068 0 0 0 982.0858051617973,282.03377286820256 Z "/><path class="wedge" fill="rgb(140,216,191)" d=" M 975.0713020919055,300.36750753419847 L 1033.6014224452908,187.86257659887025 A 321.98,321.98 0 0,1 1052.6073749604352,198.58385231334245 L 986.5913189421226,306.86595988948704 A 195.16070149482482,195.16070149482482 0 0 0 975.0713020919055,300.36750753419847 Z "/><path class="wedge" fill="rgb(140,216,191)" d=" M 984.0771997953016,283.05662737516593 L 1033.6014224452908,187.86257659887025 A 321.98,321.98 0 0,1 1048.2865900827917,195.9957479620639 L 993.8682587509037,288.47926620903866 A 214.67410113006068,214.67410113006068 0 0 0 984.0771997953016,283.05662737516593 Z "/><path class="wedge" fill="url(#hiddenPattern)" d=" M 984.0771997953016,283.05662737516593 L 1033.6014224452908,187.86257659887025 A 321.98,321.98 0 0,1 1048.2865900827917,195.9957479620639 L 993.8682587509037,288.47926620903866 A 214.67410113006068,214.67410113006068 0 0 0 984.0771997953016,283.05662737516593 Z "/><path class="wedge" fill="rgb(140,216,203)" d=" M 993.8682587509037,288.47926620903866 L 1048.2865900827917,195.9957479620639 A 321.98,321.98 0 0,1 1052.6073749604352,198.58385231334245 L 996.7490606944544,290.2048360433188 A 214.67410113006068,214.67410113006068 0 0 0 993.8682587509037,288.47926620903866 Z "/><path class="wedge" fill="url(#hiddenPattern)" d=" M 993.8682587509037,288.47926620903866 L 1048.2865900827917,195.9957479620639 A 321.98,321.98 0 0,1 1052.6073749604352,198.58385231334245 L 996.7490606944544,290.2048360433188 A 214.67410113006068,214.67410113006068 0 0 0 993.8682587509037,288.47926620903866 Z "/><path class="wedge" fill="rgb(130,213,203)" d=" M 986.5913189421226,306.86595988948704 L 1052.6073749604352,198.58385231334245 A 321.98,321.98 0 0,1 1053.3235468892192,199.02176049341756 L 987.025409929179,307.13138776579547 A 195.16070149482482,195.16070149482482 0 0 0 986.5913189421226,306.86595988948704 Z "/><path class="wedge" fill="url(#hiddenPattern)" d=" M 986.5913189421226,306.86595988948704 L 1052.6073749604352,198.58385231334245 A 321.98,321.98 0 0,1 1053.3235468892192,199.02176049341756 L 987.025409929179,307.13138776579547 A 195.16070149482482,195.16070149482482 0 0 0 986.5913189421226,306.86595988948704 Z "/><path class="wedge" fill="rgb(111,207,196)" d=" M 954.7516466136203,359.75887750694733 L 1053.3235468892192,199.02176049341756 A 321.98,321.98 0 0,1 1054.0385747014225,199.4615343370358 L 955.0479472096893,359.9411155259107 A 133.4253917037195,133.4253917037195 0 0 0 954.7516466136203,359.75887750694733 Z "/><path class="wedge" fill="url(#hiddenPattern)" d=" M 954.7516466136203,359.75887750694733 L 1053.3235468892192,199.02176049341756 A 321.98,321.98 0 0,1 1054.0385747014225,199.4615343370358 L 955.0479472096893,359.9411155259107 A 133.4253917037195,133.4253917037195 0 0 0 954.7516466136203,359.75887750694733 Z "/><path class="wedge" fill="rgb(111,149,207)" d=" M 927.2596436753556,404.99038358425895 L 1054.0385747014225,199.4615343370358 A 321.98,321.98 0 0,1 1088.8764212902374,224.2901983430714 L 935.9691053225594,411.19754958576783 A 80.495,80.495 0 0 0 927.2596436753556,404.99038358425895 Z "/><path class="wedge" fill="rgb(121,156,210)" d=" M 955.0479472096893,359.9411155259107 L 1054.0385747014225,199.4615343370358 A 321.98,321.98 0 0,1 1088.8764212902374,224.2901983430714 L 969.4844132238103,370.22987327634655 A 133.4253917037195,133.4253917037195 0 0 0 955.0479472096893,359.9411155259107 Z "/><path class="wedge" fill="rgb(121,156,210)" d=" M 973.879971508959,329.41140327878 L 1054.0385747014225,199.4615343370358 A 321.98,321.98 0 0,1 1074.933576018436,213.5070056696739 L 984.8665000277668,336.79646964058406 A 169.29611052981613,169.29611052981613 0 0 0 973.879971508959,329.41140327878 Z "/><path class="wedge" fill="url(#hiddenPattern)" d=" M 973.879971508959,329.41140327878 L 1054.0385747014225,199.4615343370358 A 321.98,321.98 0 0,1 1074.933576018436,213.5070056696739 L 984.8665000277668,336.79646964058406 A 169.29611052981613,169.29611052981613 0 0 0 973.879971508959,329.41140327878 Z "/><path class="wedge" fill="rgb(121,130,210)" d=" M 984.8665000277668,336.79646964058406 L 1074.933576018436,213.5070056696739 A 321.98,321.98 0 0,1 1088.8764212902374,224.2901983430714 L 992.1976059170612,342.46623974649066 A 169.29611052981613,169.29611052981613 0 0 0 984.8665000277668,336.79646964058406 Z "/><path class="wedge" fill="url(#hiddenPattern)" d=" M 984.8665000277668,336.79646964058406 L 1074.933576018436,213.5070056696739 A 321.98,321.98 0 0,1 1088.8764212902374,224.2901983430714 L 992.1976059170612,342.46623974649066 A 169.29611052981613,169.29611052981613 0 0 0 984.8665000277668,336.79646964058406 Z "/><path class="wedge" fill="rgb(188,111,207)" d=" M 935.9691053225594,411.19754958576783 L 1088.8764212902374,224.2901983430714 A 321.98,321.98 0 0,1 1090.8193331357038,225.89240216105202 L 936.454833283926,411.598100540263 A 80.495,80.495 0 0 0 935.9691053225594,411.19754958576783 Z "/><rect fill="rgb(188,111,207)" x="1881.795" y="908.795" width="24" height="24"/><path class="line" d="M 1089.8494436480823,225.08940071512419 L 1162.149247288582,137.41507155575624 A 435.62,435.62 0 0,1 1320.62,473.500009180005 L 1320.62,920.795 L 1793.093828125,920.795"/><text x="1873.795" y="920.795" style="font-color:black;font-weight:normal" text-anchor="end">No hits&#160;&#160;&#160;0.1%</text><circle cx="885" cy="473.5" r="80.495"/><circle cx="885" cy="473.5" r="321.98"/><text x="885" y="473.5" text-anchor="middle" style="font-color:black;font-weight:bold" transform="rotate(360,885,473.5)">Root</text><text x="1086.2375" y="473.5" text-anchor="start" style="font-color:black;font-weight:normal" transform="rotate(379.86721991701245,885,473.5)">39%&#160;&#160;&#160;[other Root]</text><path class="line" d=" M 898.7825769680952,394.19372283911866 A 80.495,80.495 0 1 0 885,553.995"/><line x1="940.130307872381" y1="156.2748913564746" x2="898.7825769680952" y2="394.19372283911866"/><text x="885" y="377.12588248888414" text-anchor="middle" style="font-color:black;font-weight:normal" transform="rotate(274.92946058091286,885,473.5)">Bacteria</text><path class="line" d=" M 791.209058628708,378.6021893404392 A 133.4253917037195,133.4253917037195 0 0 0 885,606.9253917037195"/><line x1="658.6652153153339" y1="244.49413622846726" x2="791.209058628708" y2="378.6021893404392"/><text x="885" y="617.6866073515484" text-anchor="middle" style="font-color:black;font-weight:normal" transform="rotate(67.66804979253114,885,473.5)">Bacillati</text><path class="line" d=" M 729.0807873716801,407.54264882601416 A 169.29611052981613,169.29611052981613 0 0 0 885,642.7961105298161"/><line x1="588.4611845189154" y1="348.0573784032106" x2="729.0807873716801" y2="407.54264882601416"/><text x="885" y="655.7284060123204" text-anchor="middle" style="font-color:black;font-weight:normal" transform="rotate(56.46473029045642,885,473.5)">Actinomycetota</text><path class="line" d=" M 705.2598818257877,397.4658673576642 A 195.16070149482482,195.16070149482482 0 0 0 885,668.6607014948248"/><text x="885" y="678.4174013124427" text-anchor="middle" style="font-color:black;font-weight:normal" transform="rotate(56.46473029045642,885,473.5)">Actinomycetes</text><path class="line" d=" M 709.8566086373047,597.6360630839132 A 214.67410113006068,214.67410113006068 0 0 0 885,688.1741011300606"/><line x1="622.310328287831" y1="659.6860810473029" x2="709.8566086373047" y2="597.6360630839132"/><text x="885" y="695.7926512052222" text-anchor="middle" style="font-color:black;font-weight:normal" transform="rotate(27.336099585062243,885,473.5)">Mycobacteriales</text><path class="line" d=" M 780.4890017760812,678.2843053664739 A 229.91120128038386,229.91120128038386 0 0 0 885,703.4112012803839"/><line x1="738.637182439408" y1="760.2909448286763" x2="780.4890017760812" y2="678.2843053664739"/><path class="line" d=" M 789.2134576764857,695.8828302531488 A 242.134642052093,242.134642052093 0 0 0 885,715.634642052093"/><line x1="757.6272678872199" y1="769.214909184718" x2="789.2134576764857" y2="695.8828302531488"/><path class="line" d=" M 839.8834421784345,721.5867596499652 A 252.155793316922,252.155793316922 0 0 0 885,725.655793316922"/><line x1="827.3902616065225" y1="790.284214319835" x2="839.8834421784345" y2="721.5867596499652"/><path class="line" d=" M 838.3870014222857,729.8153824910378 A 260.5193791984254,260.5193791984254 0 0 0 885,734.0193791984254"/><text x="593.7503104007873" y="473.5" text-anchor="end" style="font-color:black;font-weight:normal" transform="rotate(-84.84647302904565,885,473.5)">Mycobacterium marinum&#160;&#160;&#160;3%</text><path class="line" d=" M 818.0983473816786,716.6187219862422 A 252.155793316922,252.155793316922 0 0 0 839.8834421784345,721.5867596499652"/><line x1="799.572678157851" y1="783.940482351896" x2="818.0983473816786" y2="716.6187219862422"/><text x="597.932103341539" y="473.5" text-anchor="end" style="font-color:black;font-weight:normal" transform="rotate(-77.15352697095436,885,473.5)">Mycobacterium gastri&#160;&#160;&#160;1%</text><path class="line" d=" M 805.5181719481332,712.8014482046019 A 252.155793316922,252.155793316922 0 0 0 818.0983473816786,716.6187219862422"/><line x1="783.5089390193968" y1="779.0661711332448" x2="805.5181719481332" y2="712.8014482046019"/><text x="597.932103341539" y="473.5" text-anchor="end" style="font-color:black;font-weight:normal" transform="rotate(-73.12033195020747,885,473.5)">Mycobacterium asiaticum&#160;&#160;&#160;0.8%</text><line x1="1197.98" y1="473.5" x2="1215.98" y2="473.5" class="tick" transform="rotate(110.83817427385893,885,473.5)"/><text x="551.02" y="473.5" text-anchor="end" style="font-color:black;font-weight:normal" transform="rotate(-69.16182572614107,885,473.5)">6 more</text><path class="line" d=" M 785.2491697843287,705.0865194146037 A 252.155793316922,252.155793316922 0 0 0 805.5181719481332,712.8014482046019"/><line x1="1197.98" y1="473.5" x2="1215.98" y2="473.5" class="tick" transform="rotate(115.17012448132782,885,473.5)"/><text x="551.02" y="473.5" text-anchor="end" style="font-color:black;font-weight:normal" transform="rotate(-64.8298755186722,885,473.5)">3 more</text><path class="line" d=" M 774.9325782975037,689.1718515742377 A 242.134642052093,242.134642052093 0 0 0 789.2134576764857,695.8828302531488"/><path class="line" d=" M 712.6798732696666,625.700310110824 A 229.91120128038386,229.91120128038386 0 0 0 780.4890017760812,678.2843053664739"/><line x1="643.6736353181473" y1="686.6494923978038" x2="712.6798732696666" y2="625.700310110824"/><path class="line" d=" M 731.6813333375574,660.9101687063592 A 242.134642052093,242.134642052093 0 0 0 774.9325782975037,689.1718515742377"/><line x1="681.1235787097628" y1="722.7098016569287" x2="731.6813333375574" y2="660.9101687063592"/><path class="line" d=" M 727.3799242950198,670.3208724654035 A 252.155793316922,252.155793316922 0 0 0 770.3772520836977,698.0977955443956"/><line x1="683.7335079321228" y1="724.8223419648384" x2="727.3799242950198" y2="670.3208724654035"/><text x="597.932103341539" y="473.5" text-anchor="end" style="font-color:black;font-weight:normal" transform="rotate(-57.13692946058091,885,473.5)">Nocardia globerula&#160;&#160;&#160;3%</text><path class="line" d=" M 726.8673227930386,669.9092678634214 A 252.155793316922,252.155793316922 0 0 0 727.3799242950198,670.3208724654035"/><line x1="683.0789624646687" y1="724.296760347209" x2="726.8673227930386" y2="669.9092678634214"/><path class="line" d=" M 704.7775612581551,635.2067019502815 A 242.134642052093,242.134642052093 0 0 0 731.6813333375574,660.9101687063592"/><line x1="645.3481255952834" y1="688.5304617822924" x2="704.7775612581551" y2="635.2067019502815"/><path class="line" d=" M 704.9642744284752,650.049374457178 A 252.155793316922,252.155793316922 0 0 0 725.3359812750643,668.6664551809293"/><line x1="655.110763044565" y1="698.9374838664766" x2="704.9642744284752" y2="650.049374457178"/><path class="line" d=" M 698.9927905583278,655.9052218925074 A 260.5193791984254,260.5193791984254 0 0 0 720.040192845117,675.1398000429399"/><text x="593.7503104007873" y="473.5" text-anchor="end" style="font-color:black;font-weight:normal" transform="rotate(-47.57676348547716,885,473.5)">Rhodococcus sp. (in: high G+C Gram-positive bacteria)&#160;&#160;&#160;2%</text><path class="line" d=" M 697.7584272465112,642.3879437262657 A 252.155793316922,252.155793316922 0 0 0 704.9642744284752,650.049374457178"/><line x1="645.9095519792588" y1="689.1545340706781" x2="697.7584272465112" y2="642.3879437262657"/><path class="line" d=" M 703.5183150196494,633.7921797792644 A 242.134642052093,242.134642052093 0 0 0 704.7775612581551,635.2067019502815"/><path class="line" d=" M 697.4253121706489,606.4469704803787 A 229.91120128038386,229.91120128038386 0 0 0 712.6798732696666,625.700310110824"/><path class="line" d=" M 687.4527311298593,613.5152186144192 A 242.134642052093,242.134642052093 0 0 0 703.5183150196494,633.7921797792644"/><text x="602.9426789739534" y="473.5" text-anchor="end" style="font-color:black;font-weight:normal" transform="rotate(-38.39004149377594,885,473.5)">Tsukamurella&#160;&#160;&#160;2%</text><path class="line" d=" M 673.6414959178073,511.0839386990942 A 214.67410113006068,214.67410113006068 0 0 0 709.8566086373047,597.6360630839132"/><line x1="567.9929144403206" y1="529.8704541844234" x2="673.6414959178073" y2="511.0839386990942"/><text x="885" y="695.7926512052222" text-anchor="middle" style="font-color:black;font-weight:normal" transform="rotate(67.29460580912864,885,473.5)">Geode...lales</text><path class="line" d=" M 658.6397296247615,513.7515648122915 A 229.91120128038386,229.91120128038386 0 0 0 697.4253121706489,606.4469704803787"/><path class="line" d=" M 646.6050773651464,515.8915763285274 A 242.134642052093,242.134642052093 0 0 0 687.4527311298593,613.5152186144192"/><path class="line" d=" M 636.7387007069187,517.6460233384324 A 252.155793316922,252.155793316922 0 0 0 679.2769036376676,619.3099850023336"/><text x="597.932103341539" y="473.5" text-anchor="end" style="font-color:black;font-weight:normal" transform="rotate(-22.705394190871363,885,473.5)">Geodermatophilus obscurus&#160;&#160;&#160;7%</text><path class="line" d=" M 671.2971539078989,453.10237101682515 A 214.67410113006068,214.67410113006068 0 0 0 673.6414959178073,511.0839386990942"/><line x1="564.4767416165994" y1="442.9065164571313" x2="671.2971539078989" y2="453.10237101682515"/><text x="885" y="695.7926512052222" text-anchor="middle" style="font-color:black;font-weight:normal" transform="rotate(87.68464730290458,885,473.5)">Mi...es</text><path class="line" d=" M 656.1289913248322,451.6545917364663 A 229.91120128038386,229.91120128038386 0 0 0 658.6397296247615,513.7515648122915"/><path class="line" d=" M 643.7882823122644,452.37910674646184 A 242.134642052093,242.134642052093 0 0 0 646.6050773651464,515.8915763285274"/><line x1="564.2472642374397" y1="445.4143648668366" x2="643.7882823122644" y2="452.37910674646184"/><path class="line" d=" M 633.6409811987323,453.4703277473081 A 252.155793316922,252.155793316922 0 0 0 636.7387007069187,517.6460233384324"/><line x1="564.0374085440423" y1="447.9239313834994" x2="633.6409811987323" y2="453.4703277473081"/><path class="line" d=" M 625.250753624893,453.48310849564945 A 260.5193791984254,260.5193791984254 0 0 0 628.5042886778378,519.1102730891957"/><line x1="563.9718192743089" y1="448.76080882581135" x2="625.250753624893" y2="453.48310849564945"/><text x="593.7503104007873" y="473.5" text-anchor="end" style="font-color:black;font-weight:normal" transform="rotate(-2.8381742738589204,885,473.5)">Actinoplanes sp. ATCC 31351&#160;&#160;&#160;4%</text><path class="line" d=" M 625.3038229951428,452.8059770224639 A 260.5193791984254,260.5193791984254 0 0 0 625.250753624893,453.48310849564945"/><path class="line" d=" M 633.8053278315999,451.50498289392993 A 252.155793316922,252.155793316922 0 0 0 633.6409811987323,453.4703277473081"/><path class="line" d=" M 643.9608533510304,450.49316048580937 A 242.134642052093,242.134642052093 0 0 0 643.7882823122644,452.37910674646184"/><path class="line" d=" M 674.2552482529056,432.6145587396308 A 214.67410113006068,214.67410113006068 0 0 0 671.2971539078989,453.10237101682515"/><line x1="568.9134538804054" y1="412.1777710598725" x2="674.2552482529056" y2="432.6145587396308"/><text x="885" y="251.20734879477772" text-anchor="middle" style="font-color:black;font-weight:normal" transform="rotate(278.2157676348548,885,473.5)">...</text><path class="line" d=" M 659.2970447638877,429.7125991651176 A 229.91120128038386,229.91120128038386 0 0 0 656.1289913248322,451.6545917364663"/><path class="line" d=" M 647.1779183760252,428.0044796300268 A 242.134642052093,242.134642052093 0 0 0 643.9608533510304,450.49316048580937"/><line x1="568.7546532279621" y1="413.0020575140485" x2="647.1779183760252" y2="428.0044796300268"/><path class="line" d=" M 635.9744259538829,433.8918244009122 A 252.155793316922,252.155793316922 0 0 0 633.9850410143762,449.54098356084154"/><line x1="567.0170051354205" y1="422.9239644005893" x2="635.9744259538829" y2="433.8918244009122"/><text x="597.932103341539" y="473.5" text-anchor="end" style="font-color:black;font-weight:normal" transform="rotate(7.244813278008296,885,473.5)">Streptomyces noursei&#160;&#160;&#160;1%</text><path class="line" d=" M 637.3352497108879,426.12157065163484 A 252.155793316922,252.155793316922 0 0 0 635.9744259538829,433.8918244009122"/><path class="line" d=" M 647.2973392690527,427.3846016701215 A 242.134642052093,242.134642052093 0 0 0 647.1779183760252,428.0044796300268"/><path class="line" d=" M 678.5479955164668,414.6566525363255 A 214.67410113006068,214.67410113006068 0 0 0 674.2552482529056,432.6145587396308"/><line x1="575.3519518484675" y1="385.2435176548138" x2="678.5479955164668" y2="414.6566525363255"/><text x="885" y="251.20734879477772" text-anchor="middle" style="font-color:black;font-weight:normal" transform="rotate(283.4439834024896,885,473.5)">...</text><path class="line" d=" M 663.8944818788589,410.4800798907921 A 229.91120128038386,229.91120128038386 0 0 0 659.2970447638877,429.7125991651176"/><path class="line" d=" M 652.1392033626294,407.1295677948055 A 242.134642052093,242.134642052093 0 0 0 647.2973392690527,427.3846016701215"/><path class="line" d=" M 642.3224924046168,405.0151738661839 A 252.155793316922,252.155793316922 0 0 0 637.4596130393434,425.47603799503145"/><line x1="575.1229082714169" y1="386.05110965921125" x2="642.3224924046168" y2="405.0151738661839"/><path class="line" d=" M 633.5490481552433,405.3621562250552 A 260.5193791984254,260.5193791984254 0 0 0 629.2491124664537,423.8831635053552"/><line x1="574.2278120572762" y1="389.2873667357897" x2="633.5490481552433" y2="405.3621562250552"/><text x="593.7503104007873" y="473.5" text-anchor="end" style="font-color:black;font-weight:normal" transform="rotate(13.070539419087131,885,473.5)">Frankia sp.&#160;&#160;&#160;1%</text><path class="line" d=" M 634.2732854060998,402.74364673838915 A 260.5193791984254,260.5193791984254 0 0 0 633.5490481552433,405.3621562250552"/><path class="line" d=" M 683.9725109203355,398.1812219275639 A 214.67410113006068,214.67410113006068 0 0 0 678.5479955164668,414.6566525363255"/><line x1="583.4879377943428" y1="360.532762517215" x2="683.9725109203355" y2="398.1812219275639"/><text x="885" y="251.20734879477772" text-anchor="middle" style="font-color:black;font-weight:normal" transform="rotate(288.2240663900415,885,473.5)">...</text><path class="line" d=" M 669.7040175718105,392.8352590999643 A 229.91120128038386,229.91120128038386 0 0 0 663.8944818788589,410.4800798907921"/><path class="line" d=" M 656.9564964767338,392.1037753791412 A 242.134642052093,242.134642052093 0 0 0 652.1392033626294,407.1295677948055"/><line x1="581.7577764084479" y1="365.26287960569596" x2="656.9564964767338" y2="392.1037753791412"/><path class="line" d=" M 646.4337726978239,391.83789560577867 A 252.155793316922,252.155793316922 0 0 0 642.5018658591025,404.38271532048157"/><line x1="580.3726390485442" y1="369.2249245516865" x2="646.4337726978239" y2="391.83789560577867"/><text x="597.932103341539" y="473.5" text-anchor="end" style="font-color:black;font-weight:normal" transform="rotate(17.402489626556022,885,473.5)">Pseudonocardia nitrificans&#160;&#160;&#160;0.8%</text><path class="line" d=" M 658.2576083714666,388.5466438551838 A 242.134642052093,242.134642052093 0 0 0 656.9564964767338,392.1037753791412"/><path class="line" d=" M 687.2883295124705,389.8634945192586 A 214.67410113006068,214.67410113006068 0 0 0 683.9725109203355,398.1812219275639"/><path class="line" d=" M 759.8799193344614,359.4555417621144 A 169.29611052981613,169.29611052981613 0 0 0 729.0807873716801,407.54264882601416"/><line x1="647.0372763047324" y1="256.6017230784677" x2="759.8799193344614" y2="359.4555417621144"/><text x="885" y="291.2715939876795" text-anchor="middle" style="font-color:black;font-weight:normal" transform="rotate(302.6390041493776,885,473.5)">Bacillota</text><path class="line" d=" M 734.7559077222691,348.94313690690194 A 195.16070149482482,195.16070149482482 0 0 0 705.2598818257877,397.4658673576642"/><line x1="637.1243136499659" y1="268.003614346871" x2="734.7559077222691" y2="348.94313690690194"/><text x="885" y="268.58259868755727" text-anchor="middle" style="font-color:black;font-weight:normal" transform="rotate(301.29460580912865,885,473.5)">Clostridia</text><path class="line" d=" M 704.226066559122,357.71677718981675 A 214.67410113006068,214.67410113006068 0 0 0 687.2883295124705,389.8634945192586"/><line x1="613.8653322273378" y1="299.84196726955565" x2="704.226066559122" y2="357.71677718981675"/><text x="885" y="251.20734879477772" text-anchor="middle" style="font-color:black;font-weight:normal" transform="rotate(297.7842323651452,885,473.5)">T...s</text><path class="line" d=" M 691.3951264787547,349.4987362039733 A 229.91120128038386,229.91120128038386 0 0 0 673.2551857459524,383.927157515751"/><path class="line" d=" M 681.10194506166,342.906094805091 A 242.134642052093,242.134642052093 0 0 0 661.9975776723272,379.16493484559675"/><path class="line" d=" M 672.6632795579361,337.5012453910143 A 252.155793316922,252.155793316922 0 0 0 652.7682456460238,375.26071878845613"/><path class="line" d=" M 665.6204257180407,332.9903941867346 A 260.5193791984254,260.5193791984254 0 0 0 645.0655068098374,372.0022861562253"/><text x="593.7503104007873" y="473.5" text-anchor="end" style="font-color:black;font-weight:normal" transform="rotate(27.78423236514523,885,473.5)">Thermoanaerobacter sp.&#160;&#160;&#160;3%</text><path class="line" d=" M 719.7335543847742,336.4891549923543 A 214.67410113006068,214.67410113006068 0 0 0 704.226066559122,357.71677718981675"/><text x="885" y="251.20734879477772" text-anchor="middle" style="font-color:black;font-weight:normal" transform="rotate(306.149377593361,885,473.5)">E...s</text><path class="line" d=" M 706.1056001202492,329.08409309964156 A 229.91120128038386,229.91120128038386 0 0 0 691.3951264787547,349.4987362039733"/><line x1="634.4666699469042" y1="271.2522041343675" x2="706.1056001202492" y2="329.08409309964156"/><path class="line" d=" M 696.5945145831256,321.4060883975722 A 242.134642052093,242.134642052093 0 0 0 681.10194506166,342.906094805091"/><text x="602.9426789739534" y="473.5" text-anchor="end" style="font-color:black;font-weight:normal" transform="rotate(35.77593360995849,885,473.5)">Clostridium&#160;&#160;&#160;2%</text><path class="line" d=" M 708.0033020158519,326.7644236154795 A 229.91120128038386,229.91120128038386 0 0 0 706.1056001202492,329.08409309964156"/><line x1="1197.98" y1="473.5" x2="1215.98" y2="473.5" class="tick" transform="rotate(221.00414937759336,885,473.5)"/><text x="551.02" y="473.5" text-anchor="end" style="font-color:black;font-weight:normal" transform="rotate(41.00414937759336,885,473.5)">1 more</text><path class="line" d=" M 740.7644198832611,342.0321452356512 A 195.16070149482482,195.16070149482482 0 0 0 734.7559077222691,348.94313690690194"/><line x1="1197.98" y1="473.5" x2="1215.98" y2="473.5" class="tick" transform="rotate(223.84232365145226,885,473.5)"/><text x="551.02" y="473.5" text-anchor="end" style="font-color:black;font-weight:normal" transform="rotate(43.84232365145227,885,473.5)">2 more</text><path class="line" d=" M 765.9938545104746,353.0894092023063 A 169.29611052981613,169.29611052981613 0 0 0 759.8799193344614,359.4555417621144"/><path class="line" d=" M 907.5026676512197,341.9858749036069 A 133.4253917037195,133.4253917037195 0 0 0 791.209058628708,378.6021893404392"/><line x1="939.3030740837444" y1="156.13223770355097" x2="907.5026676512197" y2="341.9858749036069"/><text x="885" y="314.96510511801284" text-anchor="middle" style="font-color:black;font-weight:normal" transform="rotate(342.5228215767634,885,473.5)">Pseudomonadati</text><path class="line" d=" M 839.2320699486518,310.5077620886853 A 169.29611052981613,169.29611052981613 0 0 0 765.9938545104746,353.0894092023063"/><line x1="797.9551289051158" y1="163.50917623891672" x2="839.2320699486518" y2="310.5077620886853"/><text x="885" y="291.2715939876795" text-anchor="middle" style="font-color:black;font-weight:normal" transform="rotate(329.82572614107886,885,473.5)">Pseu...dota</text><path class="line" d=" M 786.9060191744087,304.78346158796217 A 195.16070149482482,195.16070149482482 0 0 0 747.8124251452277,334.6934125719591"/><line x1="723.1626028995317" y1="195.14810527006398" x2="786.9060191744087" y2="304.78346158796217"/><text x="885" y="268.58259868755727" text-anchor="middle" style="font-color:black;font-weight:normal" transform="rotate(322.5809128630706,885,473.5)">Be...ia</text><path class="line" d=" M 776.6144839581297,288.1960615412155 A 214.67410113006068,214.67410113006068 0 0 0 734.095544888979,320.8146532124141"/><line x1="722.4374539292077" y1="195.5709820566022" x2="776.6144839581297" y2="288.1960615412155"/><text x="885" y="251.20734879477772" text-anchor="middle" style="font-color:black;font-weight:normal" transform="rotate(322.5062240663901,885,473.5)">Rh...es</text><path class="line" d=" M 768.9215160869196,275.0435915707685 A 229.91120128038386,229.91120128038386 0 0 0 723.3846753264531,309.97737983736556"/><path class="line" d=" M 762.7500965776502,264.4924738318705 A 242.134642052093,242.134642052093 0 0 0 714.7922477372533,301.2835491268077"/><path class="line" d=" M 757.6905777747086,255.84234422849084 A 252.155793316922,252.155793316922 0 0 0 707.7479123318941,294.15608033561773"/><text x="597.932103341539" y="473.5" text-anchor="end" style="font-color:black;font-weight:normal" transform="rotate(52.506224066390054,885,473.5)">Rhodocyclus purpureus&#160;&#160;&#160;4%</text><path class="line" d=" M 777.0979633773163,287.91411640785674 A 214.67410113006068,214.67410113006068 0 0 0 776.6144839581297,288.1960615412155"/><path class="line" d=" M 810.1389891108839,293.26812585834944 A 195.16070149482482,195.16070149482482 0 0 0 786.9060191744087,304.78346158796217"/><line x1="761.4928179625509" y1="176.1498757606306" x2="810.1389891108839" y2="293.26812585834944"/><text x="885" y="268.58259868755727" text-anchor="middle" style="font-color:black;font-weight:normal" transform="rotate(333.63485477178426,885,473.5)">Al...ia</text><path class="line" d=" M 798.0251726609507,277.23398382465166 A 214.67410113006068,214.67410113006068 0 0 0 777.0979633773163,287.91411640785674"/><line x1="754.5503800448629" y1="179.1294562060254" x2="798.0251726609507" y2="277.23398382465166"/><text x="885" y="251.20734879477772" text-anchor="middle" style="font-color:black;font-weight:normal" transform="rotate(332.9626556016598,885,473.5)">Ac...es</text><path class="line" d=" M 791.8518888426141,263.30344945265995 A 229.91120128038386,229.91120128038386 0 0 0 769.4393118222897,274.7416345859043"/><path class="line" d=" M 786.8995837205147,252.1281562450028 A 242.134642052093,242.134642052093 0 0 0 763.2954214001978,264.1744630257938"/><path class="line" d=" M 782.839532245237,242.96630846790674 A 252.155793316922,252.155793316922 0 0 0 758.258471786402,255.51117200790307"/><path class="line" d=" M 779.4510404143648,235.3198915351601 A 260.5193791984254,260.5193791984254 0 0 0 754.0546672970277,248.28084721489415"/><text x="593.7503104007873" y="473.5" text-anchor="end" style="font-color:black;font-weight:normal" transform="rotate(62.962655601659776,885,473.5)">Acidiphilium sp.&#160;&#160;&#160;2%</text><path class="line" d=" M 782.839532245237,242.96630846790674 A 252.155793316922,252.155793316922 0 0 0 782.839532245237,242.96630846790674"/><path class="line" d=" M 802.6539123951918,275.24740467731385 A 214.67410113006068,214.67410113006068 0 0 0 798.0251726609507,277.23398382465166"/><path class="line" d=" M 830.2832225097465,286.1666776330644 A 195.16070149482482,195.16070149482482 0 0 0 810.1389891108839,293.26812585834944"/><line x1="794.7271741627808" y1="164.43376548810267" x2="830.2832225097465" y2="286.1666776330644"/><text x="626.4296492525875" y="473.5" text-anchor="end" style="font-color:black;font-weight:normal" transform="rotate(70.58091286307057,885,473.5)">Gammaproteobacteria&#160;&#160;&#160;2%</text><path class="line" d=" M 832.2397723324299,285.6062593261332 A 195.16070149482482,195.16070149482482 0 0 0 830.2832225097465,286.1666776330644"/><path class="line" d=" M 880.1455172883063,304.2735037350073 A 169.29611052981613,169.29611052981613 0 0 0 839.2320699486518,310.5077620886853"/><line x1="875.7673818458112" y1="151.65239761337517" x2="880.1455172883063" y2="304.2735037350073"/><text x="885" y="291.2715939876795" text-anchor="middle" style="font-color:black;font-weight:normal" transform="rotate(351.3360995850623,885,473.5)">F...p</text><path class="line" d=" M 879.4038628622731,278.4195482446079 A 195.16070149482482,195.16070149482482 0 0 0 832.2397723324299,285.6062593261332"/><text x="885" y="268.58259868755727" text-anchor="middle" style="font-color:black;font-weight:normal" transform="rotate(351.3360995850623,885,473.5)">B...p</text><path class="line" d=" M 872.1349932161899,259.2117331806241 A 214.67410113006068,214.67410113006068 0 0 0 826.9644715191122,266.81945633431394"/><line x1="865.7043566855715" y1="152.09869547700595" x2="872.1349932161899" y2="259.2117331806241"/><text x="885" y="251.20734879477772" text-anchor="middle" style="font-color:black;font-weight:normal" transform="rotate(350.43983402489624,885,473.5)">Ba...ta</text><path class="line" d=" M 853.9261449447026,245.69838453998716 A 229.91120128038386,229.91120128038386 0 0 0 822.8452361055935,252.14972148330202"/><line x1="841.4825037014919" y1="154.47437733638174" x2="853.9261449447026" y2="245.69838453998716"/><path class="line" d=" M 852.2740748206642,233.5871018414147 A 242.134642052093,242.134642052093 0 0 0 819.5407208366036,240.38143005521044"/><path class="line" d=" M 839.8834421784343,225.41324035003478 A 252.155793316922,252.155793316922 0 0 0 816.8315779703717,230.73342416782995"/><line x1="827.3902616065221" y1="156.71578568016514" x2="839.8834421784343" y2="225.41324035003478"/><path class="line" d=" M 838.3870014222854,217.18461750896233 A 260.5193791984254,260.5193791984254 0 0 0 814.5705454374613,222.6812629248838"/><path class="line" d=" M 837.1193091959954,210.21383622955767 A 267.60449283378045,267.60449283378045 0 0 0 812.6551382597419,215.8599690176082"/><text x="590.2077535831097" y="473.5" text-anchor="end" style="font-color:black;font-weight:normal" transform="rotate(77.00414937759335,885,473.5)">Microscilla marina&#160;&#160;&#160;1%</text><line x1="1197.98" y1="473.5" x2="1215.98" y2="473.5" class="tick" transform="rotate(260.9626556016597,885,473.5)"/><text x="551.02" y="473.5" text-anchor="end" style="font-color:black;font-weight:normal" transform="rotate(80.96265560165972,885,473.5)">2 more</text><path class="line" d=" M 850.9196571143657,223.65790120141105 A 252.155793316922,252.155793316922 0 0 0 839.8834421784343,225.41324035003478"/><path class="line" d=" M 868.8293305895791,244.15818103754376 A 229.91120128038386,229.91120128038386 0 0 0 853.9261449447026,245.69838453998716"/><line x1="862.3537256655115" y1="152.31739359241897" x2="868.8293305895791" y2="244.15818103754376"/><path class="line" d=" M 867.9696020566655,231.96501200118672 A 242.134642052093,242.134642052093 0 0 0 852.2740748206642,233.5871018414147"/><path class="line" d=" M 864.6426819341264,222.16730474438637 A 252.155793316922,252.155793316922 0 0 0 850.9196571143657,223.65790120141105"/><line x1="859.0055574982892" y1="152.57102131620263" x2="864.6426819341264" y2="222.16730474438637"/><path class="line" d=" M 863.9674637457144,213.83101964877454 A 260.5193791984254,260.5193791984254 0 0 0 849.7892691472853,215.37105669694722"/><text x="593.7503104007873" y="473.5" text-anchor="end" style="font-color:black;font-weight:normal" transform="rotate(83.80082987551863,885,473.5)">Capnocytophaga&#160;&#160;&#160;0.9%</text><path class="line" d=" M 867.2647702637258,221.9686784325104 A 252.155793316922,252.155793316922 0 0 0 864.6426819341264,222.16730474438637"/><path class="line" d=" M 871.2218630539224,244.0020187093483 A 229.91120128038386,229.91120128038386 0 0 0 868.8293305895791,244.15818103754376"/><path class="line" d=" M 878.844325724183,258.9141724852045 A 214.67410113006068,214.67410113006068 0 0 0 872.1349932161899,259.2117331806241"/><path class="line" d=" M 910.5024246453752,306.13572849102263 A 169.29611052981613,169.29611052981613 0 0 0 880.1455172883063,304.2735037350073"/><line x1="933.5024178146831" y1="155.19411587887674" x2="910.5024246453752" y2="306.13572849102263"/><text x="885" y="291.2715939876795" text-anchor="middle" style="font-color:black;font-weight:normal" transform="rotate(363.51037344398344,885,473.5)">Th...ta</text><path class="line" d=" M 893.1385909560813,278.5090700950383 A 195.16070149482482,195.16070149482482 0 0 0 879.4038628622731,278.4195482446079"/><line x1="898.4272089409791" y1="151.80009253956058" x2="893.1385909560813" y2="278.5090700950383"/><text x="885" y="268.58259868755727" text-anchor="middle" style="font-color:black;font-weight:normal" transform="rotate(360.3734439834025,885,473.5)">D...a</text><path class="line" d=" M 893.9523386859128,259.0126452956906 A 214.67410113006068,214.67410113006068 0 0 0 878.844325724183,258.9141724852045"/><text x="885" y="251.20734879477772" text-anchor="middle" style="font-color:black;font-weight:normal" transform="rotate(360.3734439834025,885,473.5)">De...es</text><path class="line" d=" M 894.5877561881583,243.78879999994425 A 229.91120128038386,229.91120128038386 0 0 0 878.4074093707912,243.68333780383796"/><path class="line" d=" M 895.0974980765346,231.5759924805114 A 242.134642052093,242.134642052093 0 0 0 878.0569082180007,231.46492328961503"/><path class="line" d=" M 895.5154000948651,221.5635586816961 A 252.155793316922,252.155793316922 0 0 0 877.7695566337608,221.44789270467524"/><text x="1172.067896658461" y="473.5" text-anchor="start" style="font-color:black;font-weight:normal" transform="rotate(270.3734439834025,885,473.5)">1%&#160;&#160;&#160;Desulfobotulus sapovorans</text><path class="line" d=" M 894.5877561881583,243.78879999994425 A 229.91120128038386,229.91120128038386 0 0 0 894.5877561881583,243.78879999994425"/><line x1="1197.98" y1="473.5" x2="1215.98" y2="473.5" class="tick" transform="rotate(275.5269709543568,885,473.5)"/><text x="1218.98" y="473.5" text-anchor="start" style="font-color:black;font-weight:normal" transform="rotate(275.5269709543568,885,473.5)">4 more</text><path class="line" d=" M 914.3986144633476,280.5662785421181 A 195.16070149482482,195.16070149482482 0 0 0 893.1385909560813,278.5090700950383"/><path class="line" d=" M 913.5523921740182,306.6289901101309 A 169.29611052981613,169.29611052981613 0 0 0 910.5024246453752,306.13572849102263"/><path class="line" d=" M 907.8454653165386,342.0449891949272 A 133.4253917037195,133.4253917037195 0 0 0 907.5026676512197,341.9858749036069"/><path class="line" d=" M 915.6828831228985,399.0822218265921 A 80.495,80.495 0 0 0 898.7825769680952,394.19372283911866"/><line x1="1007.7315324915941" y1="175.8288873063683" x2="915.6828831228985" y2="399.0822218265921"/><text x="885" y="355.9537258073963" text-anchor="middle" style="font-color:black;font-weight:normal" transform="rotate(376.1327800829875,885,473.5)">Eu...ta</text><path class="line" d=" M 918.383662250845,344.31847560114295 A 133.4253917037195,133.4253917037195 0 0 0 907.8454653165386,342.0449891949272"/><line x1="965.5609144876688" y1="161.76123202766303" x2="918.383662250845" y2="344.31847560114295"/><text x="885" y="329.3133926484515" text-anchor="middle" style="font-color:black;font-weight:normal" transform="rotate(372.17427385892114,885,473.5)">Rho...yta</text><path class="line" d=" M 925.647060100369,309.1558807084333 A 169.29611052981613,169.29611052981613 0 0 0 913.9873491990354,306.703996969541"/><line x1="962.3056177732557" y1="160.93806715997016" x2="925.647060100369" y2="309.1558807084333"/><text x="1130.638055264908" y="473.5" text-anchor="start" style="font-color:black;font-weight:normal" transform="rotate(281.8755186721992,885,473.5)">1%&#160;&#160;&#160;Bangiophyceae</text><path class="line" d=" M 927.3586852707853,309.5886983071201 A 169.29611052981613,169.29611052981613 0 0 0 925.647060100369,309.1558807084333"/><line x1="1197.98" y1="473.5" x2="1215.98" y2="473.5" class="tick" transform="rotate(286.8796680497925,885,473.5)"/><text x="1218.98" y="473.5" text-anchor="start" style="font-color:black;font-weight:normal" transform="rotate(286.8796680497925,885,473.5)">4 more</text><path class="line" d=" M 929.0324325457992,347.54969219811085 A 133.4253917037195,133.4253917037195 0 0 0 918.383662250845,344.31847560114295"/><line x1="991.2583549507483" y1="169.5587517246782" x2="929.0324325457992" y2="347.54969219811085"/><path class="line" d=" M 927.2596436753556,404.99038358425895 A 80.495,80.495 0 0 0 915.6828831228985,399.0822218265921"/><line x1="1054.0385747014225" y1="199.4615343370358" x2="927.2596436753556" y2="404.99038358425895"/><text x="885" y="377.12588248888414" text-anchor="middle" style="font-color:black;font-weight:normal" transform="rotate(387.0373443983403,885,473.5)">Archaea</text><path class="line" d=" M 954.7516466136203,359.75887750694733 A 133.4253917037195,133.4253917037195 0 0 0 935.858757677771,350.14797561951104"/><line x1="1053.3235468892192" y1="199.02176049341756" x2="954.7516466136203" y2="359.75887750694733"/><text x="885" y="314.96510511801284" text-anchor="middle" style="font-color:black;font-weight:normal" transform="rotate(386.9626556016598,885,473.5)">Methanobacteriati</text><path class="line" d=" M 973.5040120471083,329.18017152141215 A 169.29611052981613,169.29611052981613 0 0 0 949.531868719146,316.98542892069565"/><text x="885" y="291.2715939876795" text-anchor="middle" style="font-color:black;font-weight:normal" transform="rotate(386.9626556016598,885,473.5)">Methanobacteriota</text><path class="line" d=" M 975.0713020919055,300.36750753419847 A 195.16070149482482,195.16070149482482 0 0 0 959.3908689253817,293.0735661592825"/><line x1="1033.6014224452908" y1="187.86257659887025" x2="975.0713020919055" y2="300.36750753419847"/><text x="885" y="268.58259868755727" text-anchor="middle" style="font-color:black;font-weight:normal" transform="rotate(384.9460580912863,885,473.5)">...</text><path class="line" d=" M 982.0858051617973,282.03377286820256 A 214.67410113006068,214.67410113006068 0 0 0 966.828937877967,275.0333916706305"/><line x1="1030.614619469429" y1="186.328443266445" x2="982.0858051617973" y2="282.03377286820256"/><text x="885" y="251.20734879477772" text-anchor="middle" style="font-color:black;font-weight:normal" transform="rotate(384.64730290456436,885,473.5)">Methanococci</text><path class="line" d=" M 988.9767441648625,268.44391706885665 A 229.91120128038386,229.91120128038386 0 0 0 972.6369776698083,260.94666406031"/><path class="line" d=" M 994.5047635343249,257.5419215565512 A 242.134642052093,242.134642052093 0 0 0 977.2962783041088,249.64607018659314"/><path class="line" d=" M 999.0368031891906,248.6041316038107 A 252.155793316922,252.155793316922 0 0 0 981.1161157227763,240.38149708431087"/><path class="line" d=" M 1002.8192132007907,241.1447118340545 A 260.5193791984254,260.5193791984254 0 0 0 984.3041265071789,232.64934628160304"/><text x="1176.2496895992126" y="473.5" text-anchor="start" style="font-color:black;font-weight:normal" transform="rotate(294.6473029045643,885,473.5)">1%&#160;&#160;&#160;Methanocaldococcus jannaschii</text><path class="line" d=" M 984.0771997953016,283.05662737516593 A 214.67410113006068,214.67410113006068 0 0 0 982.0858051617973,282.03377286820256"/><path class="line" d=" M 986.5913189421226,306.86595988948704 A 195.16070149482482,195.16070149482482 0 0 0 975.0713020919055,300.36750753419847"/><line x1="1052.6073749604352" y1="198.58385231334245" x2="986.5913189421226" y2="306.86595988948704"/><text x="885" y="268.58259868755727" text-anchor="middle" style="font-color:black;font-weight:normal" transform="rotate(389.42738589211615,885,473.5)">...</text><path class="line" d=" M 993.8682587509037,288.47926620903866 A 214.67410113006068,214.67410113006068 0 0 0 984.0771997953016,283.05662737516593"/><line x1="1048.2865900827917" y1="195.9957479620639" x2="993.8682587509037" y2="288.47926620903866"/><text x="1153.3270505650303" y="473.5" text-anchor="start" style="font-color:black;font-weight:normal" transform="rotate(298.9792531120332,885,473.5)">0.8%&#160;&#160;&#160;Methanomicrobia</text><path class="line" d=" M 996.7490606944544,290.2048360433188 A 214.67410113006068,214.67410113006068 0 0 0 993.8682587509037,288.47926620903866"/><path class="line" d=" M 987.025409929179,307.13138776579547 A 195.16070149482482,195.16070149482482 0 0 0 986.5913189421226,306.86595988948704"/><path class="line" d=" M 955.0479472096893,359.9411155259107 A 133.4253917037195,133.4253917037195 0 0 0 954.7516466136203,359.75887750694733"/><path class="line" d=" M 935.9691053225594,411.19754958576783 A 80.495,80.495 0 0 0 927.2596436753556,404.99038358425895"/><line x1="1088.8764212902374" y1="224.2901983430714" x2="935.9691053225594" y2="411.19754958576783"/><text x="885" y="355.9537258073963" text-anchor="middle" style="font-color:black;font-weight:normal" transform="rotate(395.4771784232365,885,473.5)">ot...es</text><path class="line" d=" M 969.4844132238103,370.22987327634655 A 133.4253917037195,133.4253917037195 0 0 0 955.0479472096893,359.9411155259107"/><text x="885" y="329.3133926484515" text-anchor="middle" style="font-color:black;font-weight:normal" transform="rotate(395.4771784232365,885,473.5)">othe...nces</text><path class="line" d=" M 984.8665000277668,336.79646964058406 A 169.29611052981613,169.29611052981613 0 0 0 973.879971508959,329.41140327878"/><line x1="1074.933576018436" y1="213.5070056696739" x2="984.8665000277668" y2="336.79646964058406"/><text x="1130.638055264908" y="473.5" text-anchor="start" style="font-color:black;font-weight:normal" transform="rotate(303.9087136929461,885,473.5)">1%&#160;&#160;&#160;transposons</text><line x1="1197.98" y1="473.5" x2="1215.98" y2="473.5" class="tick" transform="rotate(307.7178423236515,885,473.5)"/><text x="1218.98" y="473.5" text-anchor="start" style="font-color:black;font-weight:normal" transform="rotate(307.7178423236515,885,473.5)">1 more</text><path class="line" d=" M 992.1976059170612,342.46623974649066 A 169.29611052981613,169.29611052981613 0 0 0 984.8665000277668,336.79646964058406"/><path class="line" d=" M 936.454833283926,411.598100540263 A 80.495,80.495 0 0 0 935.9691053225594,411.19754958576783"/><line x1="1090.8193331357038" y1="225.89240216105202" x2="936.454833283926" y2="411.598100540263"/></svg>